<svg width="206" height="84" viewBox="0 0 206 84" fill="none" xmlns="http://www.w3.org/2000/svg">
<g clip-path="url(#clip0_3_52)">
<path d="M47.1962 43.4375C47.0374 42.6599 46.756 41.5957 46.2292 40.404C44.4564 36.4026 41.3824 34.32 40.5116 33.747C36.04 30.8026 31.2966 31.0337 29.4035 31.1252C28.6987 31.1589 26.1659 31.5995 21.1073 32.4879C17.3838 33.1379 16.9099 33.2631 15.6014 33.345C13.2104 33.4894 10.5308 33.6556 7.48801 32.4638C6.08085 31.9125 2.96587 30.6967 1.28451 27.5042C1.09448 27.1455 0.404133 25.7756 0.247783 23.8519C-0.0408643 20.308 1.70545 17.7223 2.27312 16.9085C2.92017 15.9816 4.14692 14.2241 6.49939 13.2466C9.34497 12.0645 12.6812 12.5051 15.1516 14.2096C16.9797 15.4688 17.8817 17.1108 18.2762 17.9654C18.115 18.5336 17.9539 19.0994 17.7903 19.6628C17.4824 19.0489 15.7818 15.8348 11.9741 14.708C11.2837 14.5034 7.05023 13.3261 3.82941 16.1501C3.58646 16.3644 1.07283 18.6203 1.12094 22.1546C1.15461 24.6585 2.45353 26.3799 3.14147 27.2924C3.45417 27.7041 4.83246 29.4688 7.43028 30.6798C10.5861 32.1484 13.5039 31.8523 17.7879 31.3563C21.8193 30.8917 22.0166 30.3403 27.0174 29.6951C30.6255 29.2305 32.4271 28.9993 34.604 29.3292C35.6239 29.4832 39.1598 30.114 42.7606 32.7648C43.9224 33.6194 46.8354 35.82 48.625 39.8863C49.4981 41.8654 49.8205 43.647 49.9552 44.858" fill="white"/>
<path d="M47.1962 43.4375C47.0374 42.6599 46.756 41.5957 46.2292 40.404C44.4564 36.4026 41.3824 34.32 40.5116 33.747C36.04 30.8026 31.2966 31.0337 29.4035 31.1252C28.6987 31.1589 26.1659 31.5995 21.1073 32.4879C17.3838 33.1379 16.9099 33.2631 15.6014 33.345C13.2104 33.4894 10.5308 33.6556 7.48801 32.4638C6.08085 31.9125 2.96587 30.6967 1.28451 27.5042C1.09448 27.1455 0.404133 25.7756 0.247783 23.8519C-0.0408643 20.308 1.70545 17.7223 2.27312 16.9085C2.92017 15.9816 4.14692 14.2241 6.49939 13.2466C9.34497 12.0645 12.6812 12.5051 15.1516 14.2096C16.9797 15.4688 17.8817 17.1108 18.2762 17.9654C18.115 18.5336 17.9539 19.0994 17.7903 19.6628C17.4824 19.0489 15.7818 15.8348 11.9741 14.708C11.2837 14.5034 7.05023 13.3261 3.82941 16.1501C3.58646 16.3644 1.07283 18.6203 1.12094 22.1546C1.15461 24.6585 2.45353 26.3799 3.14147 27.2924C3.45417 27.7041 4.83246 29.4688 7.43028 30.6798C10.5861 32.1484 13.5039 31.8523 17.7879 31.3563C21.8193 30.8917 22.0166 30.3403 27.0174 29.6951C30.6255 29.2305 32.4271 28.9993 34.604 29.3292C35.6239 29.4832 39.1598 30.114 42.7606 32.7648C43.9224 33.6194 46.8354 35.82 48.625 39.8863C49.4981 41.8654 49.8205 43.647 49.9552 44.858" stroke="white" stroke-width="0.4" stroke-miterlimit="10"/>
<path d="M49.8493 44.8771C49.6617 43.1606 49.2167 41.4969 48.5288 39.9392C46.7127 35.8199 43.6939 33.5953 42.7029 32.8658C39.4532 30.4727 36.23 29.6998 34.5991 29.4519C32.4367 29.122 30.6351 29.3556 27.0462 29.8178C24.4917 30.1477 23.2217 30.4462 21.9949 30.7351C20.8596 31.0023 19.7868 31.2527 17.8143 31.479C13.6506 31.9581 10.6439 32.3048 7.39178 30.7929C4.95272 29.6565 3.54797 28.0218 3.05727 27.3693C2.35249 26.4376 1.04396 24.7041 1.01028 22.1618C0.957364 18.6178 3.471 16.3162 3.75964 16.0634C6.85297 13.3477 10.8628 14.2529 12.0173 14.5948C15.3777 15.5915 17.1456 18.2206 17.7662 19.3449L18.1559 17.9774C17.6628 16.9205 16.7343 15.4398 15.0914 14.3083C12.5826 12.5748 9.30888 12.2113 6.5523 13.3573C4.2311 14.3203 3.026 16.0489 2.37895 16.9759C0.853932 19.1595 0.178018 21.4708 0.372855 23.8422C0.512367 25.5564 1.07523 26.8397 1.39515 27.4488C3.05486 30.6003 6.08084 31.7824 7.53611 32.353C10.5525 33.5303 13.2321 33.3666 15.5966 33.2245C16.6165 33.1619 17.1432 33.068 19.106 32.7189C19.6448 32.6226 20.2919 32.5071 21.0881 32.3674C26.149 31.4814 28.6867 31.036 29.3987 31.0023C31.2244 30.9133 36.0761 30.6773 40.5789 33.6434C43.1551 35.3408 45.1492 37.6593 46.3399 40.3509C46.7704 41.326 47.1 42.3564 47.314 43.4085L47.0783 43.4567C46.8666 42.4214 46.5443 41.4078 46.1186 40.4496C44.9447 37.8013 42.9819 35.5189 40.4442 33.8457C36.0063 30.9229 31.2124 31.1564 29.4083 31.2431C28.7108 31.2768 26.1731 31.7198 21.1266 32.6058C20.3328 32.7454 19.6857 32.861 19.1469 32.9573C17.1745 33.3088 16.6453 33.4027 15.6086 33.4653C13.22 33.6097 10.5116 33.7759 7.4447 32.5769C6.08085 32.0448 2.88168 30.7929 1.17866 27.5619C0.849122 26.9336 0.274234 25.619 0.12991 23.8615C-0.0673318 21.4347 0.62061 19.0704 2.1769 16.8386C2.83838 15.8925 4.06994 14.1253 6.45609 13.1358C9.28723 11.9585 12.6476 12.3341 15.2237 14.1133C16.934 15.293 17.8889 16.8362 18.3892 17.9196L18.4085 17.9606L17.8264 19.9949L17.6869 19.7205C17.2419 18.8417 15.5148 15.8852 11.9428 14.8283C10.8171 14.4961 6.91311 13.6149 3.91118 16.2464C3.63216 16.4919 1.18828 18.7262 1.24361 22.1593C1.27728 24.6223 2.55454 26.3148 3.24248 27.2249C3.72356 27.8605 5.09945 29.4615 7.48559 30.5738C10.6775 32.0593 13.6578 31.7174 17.7807 31.2407C19.7386 31.0144 20.8042 30.764 21.9324 30.5016C23.1086 30.2247 24.4412 29.9117 27.0077 29.5819C30.6206 29.1172 32.4343 28.8837 34.628 29.2159C36.2829 29.4663 39.547 30.2488 42.8376 32.6732C43.8407 33.4123 46.9003 35.6634 48.7404 39.8429C49.438 41.4271 49.8878 43.11 50.0802 44.8507L49.8493 44.8796V44.8771Z" fill="black" stroke="white" stroke-width="0.4" stroke-miterlimit="10"/>
<path d="M53.0293 46.8369C53.7557 46.1628 54.8141 45.0072 55.6295 43.3098C56.0456 42.4431 57.1449 40.0716 56.7167 37.0501C56.2669 33.8866 54.4076 31.8739 53.4695 30.8892C50.4459 27.7136 46.6694 26.9697 44.7836 26.5965C42.4648 26.1366 40.5645 26.2161 38.9072 26.2883C36.3022 26.3967 35.9582 26.7361 32.2419 27.131C29.2063 27.456 27.5105 27.6341 25.2759 27.4271C23.2145 27.2369 21.0737 27.0371 18.7212 25.7924C14.5767 23.5991 12.8352 19.771 12.3156 18.5841C11.7047 17.1877 10.8796 14.7464 11.0119 11.6768C11.1731 7.94989 12.6596 5.31601 13.3524 4.11945C14.1678 2.71343 15.0337 1.66373 15.676 0.965536L13.4029 0.250488C12.5153 1.17018 9.00823 5.01506 8.85188 10.9569C8.70756 16.4366 11.505 20.1803 12.4311 21.3817C17.0013 27.3091 23.9577 28.2072 25.1845 28.3636C29.0139 28.8572 33.471 28.2192 36.1795 27.8099C37.2235 27.651 39.7227 27.2393 43.0734 27.2778C45.4547 27.3067 46.6742 27.3332 48.1704 27.964C51.0593 29.1822 52.5506 31.5922 53.063 32.4421C53.4382 33.068 54.167 34.3031 54.4845 36.1016C55.0282 39.164 53.977 41.5643 53.6306 42.2866C52.885 43.8395 51.8867 44.8892 51.1916 45.5055" fill="white"/>
<path d="M53.0293 46.8369C53.7557 46.1628 54.8141 45.0072 55.6295 43.3098C56.0456 42.4431 57.1449 40.0716 56.7167 37.0501C56.2669 33.8866 54.4076 31.8739 53.4695 30.8892C50.4459 27.7136 46.6694 26.9697 44.7836 26.5965C42.4648 26.1366 40.5645 26.2161 38.9072 26.2883C36.3022 26.3967 35.9582 26.7361 32.2419 27.131C29.2063 27.456 27.5105 27.6342 25.2759 27.4271C23.2145 27.2369 21.0737 27.0371 18.7212 25.7924C14.5767 23.5991 12.8352 19.771 12.3156 18.5841C11.7047 17.1877 10.8796 14.7464 11.0119 11.6768C11.1731 7.94989 12.6596 5.31601 13.3524 4.11945C14.1678 2.71343 15.0337 1.66373 15.676 0.965536L13.4029 0.250488C12.5153 1.17018 9.00823 5.01506 8.85188 10.9569C8.70756 16.4366 11.505 20.1803 12.4311 21.3817C17.0013 27.3091 23.9577 28.2072 25.1845 28.3636C29.0139 28.8572 33.471 28.2192 36.1795 27.8099C37.2235 27.651 39.7227 27.2393 43.0734 27.2778C45.4547 27.3067 46.6742 27.3332 48.1704 27.964C51.0593 29.1822 52.5506 31.5922 53.063 32.4421C53.4382 33.068 54.167 34.3031 54.4845 36.1016C55.0282 39.164 53.977 41.5643 53.6306 42.2866C52.885 43.8395 51.8867 44.8892 51.1916 45.5055" stroke="white" stroke-width="0.4" stroke-miterlimit="10"/>
<path d="M55.7377 43.3652C55.0955 44.7014 54.2103 45.9003 53.111 46.9284L52.9475 46.7526C54.0251 45.7439 54.891 44.569 55.5212 43.2592C55.8941 42.4816 57.0294 40.1174 56.5988 37.0694C56.1466 33.877 54.2127 31.8426 53.3852 30.9758C50.3857 27.8267 46.5876 27.078 44.7619 26.7169C42.4576 26.2618 40.5765 26.3389 38.9144 26.4111C37.5073 26.4689 36.7472 26.5989 35.785 26.7626C34.972 26.9022 33.9593 27.0732 32.2563 27.2537C29.199 27.5788 27.5129 27.7593 25.2662 27.5499C23.188 27.3597 21.04 27.1598 18.6658 25.9031C16.7199 24.8727 14.0186 22.7757 12.2074 18.6371C11.5387 17.1059 10.7617 14.655 10.8964 11.6744C11.0624 7.84154 12.6548 5.0945 13.2537 4.06166C13.8791 2.98066 14.6224 1.95744 15.4643 1.02572L13.4413 0.38771C12.1039 1.79132 9.12126 5.51583 8.97934 10.9593C8.88553 14.6405 10.0786 18.1218 12.5345 21.3071C16.6285 26.6181 22.7598 27.9279 25.2085 28.2433C29.1582 28.7513 33.892 28.0338 36.1699 27.6895L36.3382 27.663C37.4904 27.4873 39.891 27.1213 43.083 27.1574C45.4018 27.1863 46.679 27.2008 48.2257 27.8532C50.2053 28.6862 51.8699 30.2102 53.176 32.3795C53.5079 32.9308 54.2849 34.2236 54.6144 36.0799C55.1171 38.9112 54.2897 41.2152 53.7509 42.3372C53.1591 43.5722 52.3245 44.6677 51.2805 45.5946L51.1194 45.414C52.1393 44.5088 52.9523 43.4374 53.5296 42.2312C54.0539 41.1382 54.8646 38.8847 54.3739 36.1208C54.0539 34.3103 53.3179 33.0897 52.9667 32.5022C51.687 30.3788 50.061 28.8885 48.1295 28.0747C46.6862 27.4656 45.5389 27.4295 43.0781 27.4006C39.9054 27.3645 37.5193 27.728 36.3719 27.9038L36.2035 27.9303C33.9184 28.277 29.1606 28.9968 25.1748 28.484C22.6973 28.1662 16.4914 26.8445 12.3421 21.4587C9.85009 18.2278 8.64259 14.6959 8.7364 10.9569C8.87831 5.3497 11.9837 1.54093 13.3114 0.163806L13.362 0.11084L15.8876 0.907744L15.7601 1.04738C14.8798 2.00559 14.1028 3.0577 13.4534 4.18204C12.8063 5.29674 11.2909 7.91376 11.1274 11.684C10.9999 14.6188 11.76 17.0336 12.4215 18.5384C14.2063 22.6144 16.8594 24.6752 18.7717 25.6888C21.1025 26.9239 23.2265 27.1213 25.2807 27.3091C27.5057 27.5138 29.1798 27.3356 32.2226 27.013C33.9184 26.8324 34.9239 26.6615 35.7369 26.5243C36.7087 26.3581 37.4736 26.2281 38.8976 26.1679C40.5717 26.0981 42.4696 26.0187 44.8028 26.4785C46.655 26.8445 50.5036 27.6053 53.5536 30.8073C54.3955 31.6933 56.3703 33.7662 56.8322 37.0357C56.9019 37.5316 56.9332 38.0107 56.9308 38.4682C56.9236 40.883 56.0528 42.6959 55.7353 43.3652H55.7377Z" fill="black" stroke="white" stroke-width="0.4" stroke-miterlimit="10"/>
<path d="M159.463 37.2979C159.598 38.0803 159.843 39.1517 160.334 40.3579C161.977 44.4122 164.988 46.5911 165.837 47.1906C170.213 50.2747 174.963 50.1928 176.859 50.1591C177.563 50.1471 180.106 49.7835 185.193 49.0564C188.931 48.522 189.41 48.4136 190.721 48.3727C193.114 48.3029 195.799 48.2234 198.803 49.5067C200.196 50.1037 203.267 51.4183 204.848 54.6588C205.026 55.0248 205.67 56.414 205.769 58.3424C205.947 61.8936 204.121 64.4239 203.527 65.2184C202.854 66.1261 201.572 67.8427 199.19 68.7455C196.306 69.8386 192.987 69.292 190.569 67.5104C188.787 66.1911 187.933 64.5226 187.568 63.6559C187.748 63.095 187.926 62.534 188.109 61.973C188.4 62.5966 189.995 65.8637 193.766 67.1084C194.449 67.3347 198.642 68.6468 201.949 65.9214C202.199 65.7144 204.783 63.5379 204.843 60.0036C204.889 57.4998 203.645 55.7398 202.984 54.8033C202.688 54.382 201.365 52.5739 198.803 51.2834C195.693 49.7161 192.77 49.9232 188.47 50.2819C184.428 50.6189 184.212 51.1655 179.192 51.6518C175.574 52.0033 173.765 52.1791 171.598 51.7794C170.583 51.5916 167.066 50.8501 163.552 48.0886C162.417 47.1978 159.576 44.9034 157.914 40.784C157.106 38.7785 156.839 36.9873 156.742 35.7715" fill="white"/>
<path d="M159.463 37.2979C159.598 38.0803 159.843 39.1517 160.334 40.3579C161.977 44.4122 164.988 46.5911 165.837 47.1906C170.213 50.2747 174.963 50.1928 176.859 50.1591C177.563 50.1471 180.106 49.7835 185.193 49.0564C188.931 48.522 189.41 48.4136 190.721 48.3727C193.114 48.3029 195.799 48.2234 198.803 49.5067C200.196 50.1037 203.267 51.4183 204.848 54.6588C205.026 55.0248 205.67 56.414 205.769 58.3424C205.947 61.8936 204.121 64.4239 203.527 65.2184C202.854 66.1261 201.572 67.8427 199.19 68.7455C196.306 69.8386 192.987 69.292 190.569 67.5104C188.787 66.1911 187.933 64.5226 187.568 63.6559C187.748 63.095 187.926 62.534 188.109 61.973C188.4 62.5966 189.995 65.8637 193.766 67.1084C194.449 67.3347 198.642 68.6468 201.949 65.9214C202.199 65.7144 204.783 63.5379 204.843 60.0036C204.889 57.4998 203.645 55.7398 202.984 54.8033C202.688 54.382 201.365 52.5739 198.803 51.2834C195.693 49.7161 192.77 49.9232 188.47 50.2819C184.428 50.6189 184.212 51.1655 179.192 51.6518C175.574 52.0033 173.765 52.1791 171.598 51.7794C170.583 51.5916 167.066 50.8501 163.552 48.0886C162.417 47.1978 159.576 44.9034 157.914 40.784C157.106 38.7785 156.839 36.9873 156.742 35.7715" stroke="white" stroke-width="0.4" stroke-miterlimit="10"/>
<path d="M203.633 65.2931C202.943 66.22 201.656 67.9462 199.241 68.8611C196.374 69.9493 193.028 69.4702 190.507 67.6116C188.835 66.3789 187.928 64.8091 187.464 63.7089L187.447 63.668L188.094 61.6504L188.224 61.9297C188.64 62.8229 190.271 65.8324 193.809 67C194.923 67.3684 198.796 68.3723 201.877 65.8348C202.161 65.6012 204.667 63.4392 204.728 60.0085C204.778 57.5527 203.549 55.8145 202.89 54.8803C202.428 54.2303 201.105 52.5859 198.753 51.399C195.611 49.8148 192.624 50.0652 188.484 50.4095C186.519 50.5732 185.446 50.7899 184.311 51.0186C183.125 51.2594 181.785 51.529 179.209 51.7794C175.584 52.1309 173.765 52.3067 171.581 51.9046C169.936 51.5988 166.696 50.7153 163.482 48.1897C162.499 47.4193 159.513 45.0695 157.806 40.837C157.159 39.236 156.759 37.5362 156.625 35.7907L156.865 35.7715C156.997 37.4929 157.389 39.1686 158.027 40.7479C159.711 44.9251 162.66 47.2411 163.629 48.0019C166.802 50.4962 169.999 51.3701 171.622 51.6686C173.775 52.0635 175.584 51.8901 179.185 51.5386C181.749 51.2907 183.026 51.033 184.262 50.7827C185.405 50.5491 186.483 50.3349 188.462 50.1687C192.638 49.8196 195.654 49.5668 198.861 51.1823C201.264 52.3933 202.616 54.0714 203.087 54.7407C203.761 55.6941 205.014 57.4781 204.968 60.0109C204.906 63.55 202.322 65.777 202.029 66.0202C198.854 68.6372 194.875 67.6067 193.733 67.2288C190.403 66.1285 188.722 63.4441 188.135 62.3005L187.7 63.6559C188.162 64.7273 189.042 66.2344 190.649 67.419C193.1 69.2294 196.362 69.6965 199.154 68.6372C201.504 67.7464 202.762 66.0563 203.438 65.151C205.028 63.0155 205.774 60.7283 205.656 58.3521C205.572 56.6331 205.05 55.3378 204.747 54.7166C203.186 51.5122 200.198 50.2337 198.762 49.6222C195.784 48.3486 193.097 48.4281 190.731 48.4979C189.708 48.5292 189.179 48.6038 187.209 48.8927C186.668 48.9722 186.016 49.0685 185.213 49.1816C180.13 49.9063 177.578 50.2723 176.866 50.2843C175.038 50.3156 170.181 50.3999 165.775 47.2941C163.254 45.5173 161.334 43.1338 160.228 40.4085C159.826 39.4189 159.533 38.3813 159.35 37.322L159.588 37.281C159.766 38.3235 160.057 39.3443 160.452 40.317C161.541 43.0014 163.432 45.3464 165.914 47.0967C170.258 50.1591 175.057 50.0772 176.864 50.0435C177.561 50.0291 180.108 49.6656 185.184 48.9409C185.985 48.8253 186.637 48.7314 187.178 48.652C189.157 48.3655 189.689 48.286 190.726 48.2547C193.117 48.1849 195.83 48.103 198.858 49.3983C200.208 49.9761 203.364 51.3268 204.963 54.6083C205.274 55.2439 205.808 56.5753 205.897 58.3376C205.904 58.5085 205.909 58.6795 205.909 58.8504C205.909 61.0991 205.141 63.2659 203.636 65.2931H203.633Z" fill="black" stroke="white" stroke-width="0.4" stroke-miterlimit="10"/>
<path d="M153.743 33.7058C152.997 34.3607 151.9 35.4802 151.034 37.151C150.592 38.0033 149.418 40.3387 149.752 43.3722C150.101 46.5502 151.898 48.6207 152.805 49.6319C155.73 52.9013 159.477 53.7657 161.354 54.1966C163.658 54.7287 165.558 54.7094 167.218 54.6902C169.825 54.6613 170.179 54.3338 173.905 54.057C176.95 53.8283 178.651 53.7031 180.878 53.9799C182.932 54.2351 185.066 54.5 187.377 55.8193C191.452 58.145 193.073 62.0236 193.555 63.225C194.122 64.6406 194.87 67.1084 194.639 70.1708C194.36 73.8905 192.79 76.4786 192.061 77.6535C191.2 79.0331 190.302 80.0539 189.639 80.7328L191.89 81.5201C192.804 80.6269 196.431 76.8951 196.773 70.9629C197.088 65.4929 194.413 61.6625 193.523 60.4322C189.143 54.3627 182.22 53.2504 180.996 53.053C177.181 52.4391 172.707 52.9375 169.989 53.2625C168.94 53.3901 166.431 53.7223 163.083 53.5755C160.704 53.4719 159.485 53.4093 158.008 52.7304C155.16 51.4231 153.741 48.9674 153.257 48.1006C152.899 47.4626 152.213 46.2059 151.948 44.3978C151.501 41.3209 152.627 38.9519 152.995 38.2417C153.791 36.7105 154.821 35.6945 155.535 35.0998" fill="white"/>
<path d="M153.743 33.7058C152.997 34.3607 151.9 35.4802 151.034 37.151C150.592 38.0033 149.418 40.3387 149.752 43.3722C150.101 46.5502 151.898 48.6207 152.805 49.6319C155.73 52.9013 159.477 53.7657 161.354 54.1966C163.658 54.7287 165.558 54.7094 167.218 54.6902C169.825 54.6613 170.179 54.3338 173.905 54.057C176.95 53.8283 178.651 53.7031 180.878 53.9799C182.932 54.2351 185.066 54.5 187.377 55.8193C191.452 58.145 193.073 62.0236 193.555 63.225C194.122 64.6406 194.87 67.1084 194.639 70.1708C194.36 73.8905 192.79 76.4786 192.061 77.6535C191.2 79.0331 190.302 80.0539 189.639 80.7328L191.89 81.5201C192.804 80.6269 196.431 76.8951 196.773 70.9629C197.088 65.4929 194.413 61.6625 193.523 60.4322C189.143 54.3627 182.22 53.2504 180.996 53.053C177.181 52.4391 172.707 52.9375 169.989 53.2625C168.94 53.3901 166.431 53.7223 163.083 53.5755C160.704 53.4719 159.485 53.4093 158.008 52.7304C155.16 51.4231 153.741 48.9674 153.257 48.1006C152.899 47.4626 152.213 46.2059 151.948 44.3978C151.501 41.3209 152.627 38.9519 152.995 38.2417C153.791 36.7105 154.821 35.6945 155.535 35.0998" stroke="white" stroke-width="0.4" stroke-miterlimit="10"/>
<path d="M196.9 70.9774C196.578 76.5702 193.352 80.2802 191.981 81.614L191.928 81.667L189.427 80.7907L189.559 80.6558C190.471 79.7241 191.281 78.6985 191.965 77.5958C192.645 76.5004 194.24 73.9339 194.524 70.1685C194.743 67.2385 194.057 64.802 193.446 63.2756C191.791 59.1466 189.201 57.0015 187.322 55.9301C185.032 54.6228 182.915 54.3604 180.866 54.1052C178.648 53.8283 176.969 53.9535 173.917 54.1822C172.216 54.3074 171.204 54.4471 170.391 54.5602C169.414 54.695 168.644 54.7986 167.22 54.8154C165.544 54.8323 163.646 54.8539 161.327 54.3195C159.489 53.8957 155.667 53.017 152.718 49.7186C151.903 48.8085 149.995 46.6754 149.637 43.3939C149.293 40.2617 150.527 37.8854 150.931 37.1054C151.617 35.786 152.535 34.6183 153.666 33.624L153.825 33.8046C152.716 34.7772 151.814 35.9233 151.145 37.2137C150.748 37.9793 149.538 40.3074 149.875 43.365C150.229 46.5695 152.098 48.6641 152.899 49.5573C155.797 52.7979 159.571 53.6694 161.385 54.0859C163.675 54.6132 165.558 54.5939 167.22 54.5747C168.627 54.5626 169.392 54.4567 170.359 54.3219C171.177 54.2087 172.195 54.0715 173.9 53.9415C176.967 53.7103 178.658 53.5852 180.9 53.8644C182.968 54.1196 185.109 54.3869 187.442 55.7183C189.355 56.8089 191.989 58.9901 193.67 63.1817C194.293 64.7322 194.986 67.2048 194.764 70.1805C194.476 74.0061 192.799 76.7002 192.169 77.7162C191.508 78.7779 190.731 79.7747 189.862 80.6799L191.866 81.3805C193.247 80.025 196.347 76.392 196.66 70.9557C196.869 67.2794 195.787 63.7643 193.432 60.5021C189.504 55.0634 183.418 53.5659 180.982 53.1735C177.046 52.5403 172.293 53.1109 170.008 53.3829L169.837 53.4046C168.68 53.5466 166.273 53.8379 163.083 53.6983C160.767 53.5972 159.492 53.5418 157.964 52.8412C156.011 51.9456 154.395 50.3711 153.158 48.1609C152.843 47.5999 152.107 46.283 151.835 44.4171C151.422 41.5714 152.321 39.2938 152.894 38.1888C153.524 36.9705 154.39 35.9016 155.463 35.0084L155.617 35.1938C154.57 36.0677 153.724 37.1102 153.108 38.2995C152.55 39.3805 151.669 41.6027 152.074 44.3834C152.338 46.206 153.033 47.4459 153.368 48.0453C154.578 50.2073 156.16 51.7506 158.063 52.6245C159.487 53.2794 160.634 53.354 163.093 53.46C166.261 53.5972 168.656 53.3059 169.809 53.1686L169.979 53.147C172.274 52.8725 177.051 52.3019 181.018 52.9375C183.483 53.3348 189.646 54.8515 193.624 60.3649C195.818 63.4056 196.924 66.6679 196.922 70.0746C196.922 70.3731 196.912 70.6717 196.903 70.9774H196.9Z" fill="black" stroke="white" stroke-width="0.4" stroke-miterlimit="10"/>
<path d="M101.029 48.6062C100.731 51.2449 100.076 55.1211 98.4574 59.5438C97.0743 63.3213 90.664 80.8363 77.2467 82.9189C71.6782 83.7832 66.651 81.7199 65.4627 81.2023C61.6646 79.5483 59.3674 77.2707 57.3204 75.1978C51.7207 69.528 49.4211 63.42 48.3219 60.4009C46.3976 55.1235 45.9622 50.9536 45.5364 46.8896C44.5478 37.4544 45.6591 30.0535 46.1787 26.7311C46.3062 25.9197 46.8931 22.2578 48.1078 17.5101C48.7909 14.8377 49.4765 12.5818 50.0369 10.8628C51.2949 12.5168 53.4285 14.9003 56.6782 16.8673C60.801 19.3615 64.5703 19.8839 67.82 20.298C75.6183 21.2924 81.764 19.8743 86.2453 18.7957C89.8269 17.9338 94.782 16.4267 100.387 13.6483" fill="#CAFF8A"/>
<path d="M101.029 48.6062C100.731 51.2449 100.076 55.1211 98.4574 59.5438C97.0743 63.3213 90.664 80.8363 77.2467 82.9189C71.6782 83.7832 66.651 81.7199 65.4627 81.2023C61.6646 79.5483 59.3674 77.2707 57.3204 75.1978C51.7207 69.528 49.4211 63.42 48.3219 60.4009C46.3976 55.1235 45.9622 50.9536 45.5364 46.8896C44.5478 37.4544 45.6591 30.0535 46.1787 26.7311C46.3062 25.9197 46.8931 22.2578 48.1078 17.5101C48.7909 14.8377 49.4765 12.5818 50.0369 10.8628C51.2949 12.5168 53.4285 14.9003 56.6782 16.8673C60.801 19.3615 64.5703 19.8839 67.82 20.298C75.6183 21.2924 81.764 19.8743 86.2453 18.7957C89.8269 17.9338 94.782 16.4267 100.387 13.6483" stroke="black" stroke-width="0.4" stroke-miterlimit="10"/>
<path d="M74.4709 83.2488C70.3793 83.2488 66.9035 81.9607 65.417 81.3131C61.5202 79.6182 59.1461 77.213 57.2387 75.2821C51.5066 69.4799 49.1974 63.1456 48.2136 60.4419C46.2845 55.1501 45.8467 50.9585 45.421 46.9041C44.4107 37.2522 45.611 29.5961 46.0632 26.7143C46.2677 25.4094 46.8666 21.8967 47.9947 17.4813C48.5648 15.2495 49.2143 13.0104 49.9263 10.8268L49.9984 10.6077L50.1379 10.7906C51.9853 13.2199 54.2103 15.2302 56.7455 16.7638C60.9309 19.2966 64.7627 19.7853 67.8392 20.1777C75.7722 21.1913 82.0599 19.6794 86.2212 18.6778C91.0536 17.515 95.8043 15.7863 100.336 13.5401L100.442 13.7568C95.8933 16.0127 91.1258 17.7461 86.2765 18.9138C82.0984 19.9177 75.7866 21.4345 67.8079 20.4161C64.7074 20.0213 60.8491 19.5277 56.6205 16.9685C54.1213 15.4565 51.9227 13.4871 50.085 11.1157C49.4043 13.2247 48.7789 15.3843 48.2305 17.539C47.1047 21.9425 46.5082 25.4479 46.3037 26.748C45.8515 29.6226 44.6537 37.2546 45.6615 46.8752C46.0849 50.9151 46.5226 55.0923 48.4397 60.3576C49.4211 63.0469 51.7159 69.3451 57.4118 75.1112C59.3049 77.0276 61.6622 79.4135 65.5156 81.0892C67.3124 81.8716 72.0486 83.6027 77.2323 82.7961C85.8387 81.4599 93.3387 73.1851 98.3492 59.4981C99.6288 55.9999 100.492 52.3284 100.913 48.5894L101.151 48.6159C100.728 52.3741 99.8622 56.0649 98.5729 59.58C97.8488 61.5566 95.9269 66.8051 92.468 71.9284C88.0902 78.4096 82.9763 82.1461 77.2683 83.0321C76.3134 83.1862 75.3777 83.2488 74.4709 83.2488Z" fill="black" stroke="black" stroke-width="0.4" stroke-miterlimit="10"/>
<path d="M99.8525 15.6899C98.2385 26.6083 98.8591 35.4561 99.6385 41.2102C102.778 64.4119 113.967 77.8052 119.137 80.882C121.523 82.3025 124.065 83.0272 124.065 83.0272C125.032 83.3016 128.765 84.2863 133.492 83.4557C138.827 82.5192 142.353 79.8107 143.991 78.5226C148.853 74.697 151.022 70.2647 153.418 65.228C154.414 63.1334 158.215 54.8322 159.309 43.0327C159.92 36.436 159.448 31.2886 159.095 27.593C158.527 21.6607 157.464 16.4652 156.309 12.1532C151.095 8.76338 146.39 7.05642 143.241 6.14876C126.324 1.27585 112.021 7.33569 108.531 8.93673C104.899 10.6028 102.138 12.406 100.389 13.6556L99.8525 15.6899Z" fill="#FFB7FF" stroke="black" stroke-width="0.4" stroke-miterlimit="10"/>
<path d="M129.711 83.9037C127.192 83.9037 125.193 83.4727 124.029 83.1405C124.003 83.1332 121.446 82.3965 119.072 80.9833C116.551 79.481 112.454 75.4531 108.519 68.6493C105.368 63.1986 101.248 54.0185 99.5158 41.2223C98.3853 32.8753 98.4574 24.2779 99.7299 15.6684V15.6564L100.278 13.5762L100.314 13.5521C102.874 11.7224 105.621 10.131 108.476 8.82368C113.638 6.45704 127.361 1.4469 143.267 6.0285C147.845 7.34784 152.252 9.37261 156.37 12.0474L156.408 12.0715L156.42 12.1172C157.772 17.1683 158.71 22.3711 159.208 27.5762C159.542 31.0576 160.045 36.3181 159.422 43.04C158.436 53.6574 155.302 61.5277 153.519 65.2763C151.217 70.1179 149.043 74.6923 144.059 78.6142C142.539 79.8108 138.981 82.6108 133.506 83.5714C132.155 83.8122 130.877 83.9037 129.711 83.9037ZM99.9704 15.7141C98.7028 24.2971 98.6306 32.8705 99.7563 41.1934C101.483 53.9511 105.589 63.1023 108.728 68.5313C112.64 75.2942 116.7 79.2908 119.194 80.7786C121.54 82.175 124.068 82.9045 124.094 82.9117C125.775 83.3908 129.23 84.0818 133.468 83.3379C138.882 82.3869 142.409 79.6134 143.912 78.4288C148.853 74.5406 151.015 69.9927 153.305 65.1752C155.08 61.4435 158.205 53.602 159.186 43.0208C159.807 36.3229 159.304 31.0768 158.972 27.6027C158.477 22.424 157.543 17.2526 156.201 12.228C152.117 9.57725 147.744 7.57175 143.202 6.26444C127.37 1.70451 113.715 6.69058 108.577 9.04518C105.748 10.3429 103.028 11.9174 100.49 13.7255L99.9704 15.7141Z" fill="black" stroke="black" stroke-width="0.4" stroke-miterlimit="10"/>
<path d="M140.987 33.2751C142.125 32.7719 144.09 32.1002 146.558 32.2038C151.241 32.3988 154.306 35.2469 155.128 36.0631C153.82 33.2029 152.167 31.3418 151.058 30.2729C149.601 28.8717 148.254 27.6101 146.13 27.2707C145.574 27.1816 143.756 26.8975 142.06 27.9135C140.116 29.0787 139.077 31.5104 139.274 34.1322L140.987 33.2751Z" fill="#F2F2F2" stroke="black" stroke-width="0.4" stroke-miterlimit="10"/>
<path d="M155.128 36.1834C155.097 36.1834 155.066 36.1714 155.044 36.1473C153.947 35.0591 150.929 32.5046 146.553 32.3217C144.67 32.2446 142.815 32.6009 141.038 33.3834L139.327 34.2405C139.291 34.2573 139.248 34.2573 139.214 34.2405C139.178 34.2212 139.157 34.1851 139.154 34.1442C138.947 31.414 140.037 28.9872 141.997 27.8123C143.152 27.1189 144.549 26.8974 146.149 27.1526C148.352 27.5041 149.769 28.8668 151.14 30.1861C152.836 31.8185 154.214 33.7782 155.237 36.0125C155.261 36.0654 155.244 36.128 155.196 36.1617C155.176 36.1786 155.152 36.1858 155.128 36.1858V36.1834ZM146.043 32.0713C146.216 32.0713 146.39 32.0761 146.563 32.0833C150.5 32.247 153.36 34.2959 154.744 35.5358C153.767 33.5688 152.502 31.8305 150.974 30.3619C149.567 29.0088 148.239 27.7304 146.111 27.391C144.569 27.1454 143.227 27.3548 142.12 28.0193C140.282 29.122 139.241 31.3827 139.38 33.9468L140.932 33.1691C140.932 33.1691 140.934 33.1691 140.937 33.1691C142.587 32.4396 144.302 32.0737 146.043 32.0737V32.0713Z" fill="black" stroke="black" stroke-width="0.4" stroke-miterlimit="10"/>
<path d="M123.469 33.872C122.066 33.4699 119.668 32.9764 116.741 33.3471C111.187 34.0501 107.807 37.3485 106.905 38.2875C108.194 35.1648 109.986 33.0462 111.208 31.8135C112.81 30.1956 114.297 28.7366 116.791 28.1564C117.443 28.0047 119.582 27.5136 121.693 28.3948C124.113 29.4035 125.578 31.8304 125.588 34.5846L123.469 33.872Z" fill="#F2F2F2" stroke="black" stroke-width="0.4" stroke-miterlimit="10"/>
<path d="M106.905 38.4055C106.884 38.4055 106.859 38.3983 106.84 38.3862C106.792 38.3549 106.773 38.2923 106.795 38.2394C107.802 35.8005 109.258 33.6096 111.124 31.7269C112.63 30.2077 114.186 28.638 116.765 28.0385C118.636 27.6027 120.31 27.6846 121.742 28.2817C124.178 29.2977 125.698 31.7125 125.708 34.5823C125.708 34.6208 125.689 34.6569 125.658 34.681C125.626 34.7051 125.585 34.7099 125.549 34.6978L123.433 33.9876C121.241 33.3592 118.995 33.1835 116.758 33.4676C111.56 34.1248 108.199 37.115 106.994 38.3718C106.97 38.3935 106.939 38.4055 106.905 38.4055ZM119.019 28.0048C118.324 28.0048 117.587 28.0939 116.818 28.272C114.307 28.8547 112.774 30.4003 111.293 31.8954C109.597 33.6072 108.243 35.5766 107.261 37.7579C108.757 36.3302 111.99 33.8239 116.724 33.2244C118.997 32.9379 121.275 33.1137 123.5 33.7541C123.5 33.7541 123.502 33.7541 123.505 33.7541L125.463 34.4113C125.395 31.7125 123.945 29.459 121.645 28.5008C120.849 28.1685 119.969 28.0024 119.019 28.0024V28.0048Z" fill="black" stroke="black" stroke-width="0.4" stroke-miterlimit="10"/>
<path d="M60.4619 39.6647C59.276 39.2433 57.2507 38.7161 54.7899 39.0459C50.1235 39.6695 47.3236 42.9149 46.5779 43.8394C47.6195 40.7384 49.0988 38.6487 50.1091 37.4353C51.4344 35.8439 52.666 34.4065 54.7587 33.8624C55.3071 33.7204 57.0991 33.2605 58.8911 34.1682C60.9429 35.2107 62.2106 37.6543 62.2563 40.4062L60.4619 39.6647Z" fill="#F2F2F2" stroke="black" stroke-width="0.4" stroke-miterlimit="10"/>
<path d="M46.5779 43.9574C46.5587 43.9574 46.5395 43.9526 46.5202 43.9429C46.4697 43.9141 46.4457 43.8539 46.4649 43.7985C47.2779 41.3765 48.4734 39.2097 50.0177 37.3558C51.2661 35.8583 52.5577 34.3079 54.7274 33.7445C56.3053 33.3352 57.7221 33.4411 58.9441 34.0599C61.0127 35.1096 62.326 37.5412 62.3766 40.4038C62.3766 40.4447 62.3573 40.4833 62.3236 40.5049C62.29 40.529 62.2467 40.5314 62.2106 40.517L60.4186 39.7779C58.5688 39.1206 56.6806 38.9135 54.8068 39.1663C50.4506 39.749 47.6676 42.6814 46.6742 43.9165C46.6501 43.9429 46.614 43.9574 46.5779 43.9574ZM56.5315 33.7397C55.9782 33.7397 55.3961 33.8191 54.7899 33.9756C52.6924 34.5197 51.4849 35.9715 50.2029 37.5099C48.8102 39.1832 47.7037 41.1165 46.9099 43.2616C48.1751 41.846 50.8451 39.448 54.7755 38.9232C56.6902 38.668 58.6169 38.8774 60.5028 39.5491C60.5052 39.5491 60.5076 39.5491 60.5076 39.5491L62.1312 40.2208C62.0326 37.5268 60.7818 35.2589 58.8358 34.2717C58.1358 33.9154 57.3637 33.7373 56.5315 33.7373V33.7397Z" fill="black" stroke="black" stroke-width="0.4" stroke-miterlimit="10"/>
<path d="M75.7121 40.4134C77.1986 40.175 79.705 39.9848 82.5867 40.8275C88.0565 42.4285 90.8636 46.5768 91.6021 47.7493C90.8708 44.1018 89.4492 41.492 88.4438 39.9463C87.1232 37.9192 85.8917 36.0846 83.4815 35.0734C82.8512 34.8086 80.785 33.9491 78.4975 34.6112C75.8756 35.3695 73.9585 37.8373 73.4486 40.8877L75.7121 40.4134Z" fill="#F2F2F2" stroke="black" stroke-width="0.4" stroke-miterlimit="10"/>
<path d="M91.6021 47.8696C91.5612 47.8696 91.5227 47.8504 91.501 47.8142C90.5148 46.2469 87.6716 42.4406 82.5554 40.943C80.352 40.2978 78.0573 40.1606 75.7361 40.5314L73.4726 41.0056C73.4341 41.0153 73.3932 41.0056 73.3644 40.9743C73.3355 40.9479 73.3235 40.9069 73.3283 40.8684C73.8599 37.7001 75.8275 35.2588 78.4638 34.4956C80.0153 34.0478 81.7207 34.2043 83.5272 34.9627C86.0191 36.0075 87.3012 37.9769 88.5424 39.8813C90.0794 42.2407 91.1474 44.8794 91.7199 47.7252C91.7319 47.7829 91.7007 47.8383 91.6478 47.86C91.6333 47.8672 91.6189 47.8696 91.6021 47.8696ZM78.2642 40.0884C79.7435 40.0884 81.2011 40.2978 82.6227 40.7119C87.3036 42.0818 90.1107 45.3513 91.3519 47.1498C90.7602 44.5713 89.7499 42.1733 88.3427 40.0137C87.1208 38.1406 85.858 36.2025 83.4357 35.1866C81.6798 34.4498 80.0297 34.2958 78.5312 34.7291C76.032 35.4514 74.1533 37.7458 73.5977 40.736L75.688 40.2978H75.6928C76.5539 40.1558 77.4127 40.0884 78.2642 40.0884Z" fill="black" stroke="black" stroke-width="0.4" stroke-miterlimit="10"/>
<path d="M155.023 25.2337C154.96 25.3276 153.964 24.639 152.023 23.7314C149.964 22.7707 148.304 22.2483 146.88 21.8005C145.598 21.3984 144.049 20.9145 141.952 20.5149C140.451 20.2284 138.57 19.9611 136.381 19.872C136.775 19.3568 137.466 18.6105 138.524 18.1554C140.554 17.2815 142.637 18.0447 145.165 19.0125C147.157 19.7757 148.526 20.6136 150.094 21.5862C152.762 23.2402 155.119 25.0844 155.023 25.2337Z" fill="#F2F2F2" stroke="black" stroke-width="0.4" stroke-miterlimit="10"/>
<path d="M155.013 25.3662C154.902 25.3662 154.703 25.2578 154.248 25.0075C153.748 24.733 152.992 24.3189 151.973 23.8422C149.921 22.8864 148.287 22.3712 146.847 21.9186C145.67 21.5478 144.061 21.0422 141.93 20.6353C140.109 20.2862 138.243 20.0695 136.378 19.9949L136.147 19.9853L136.289 19.8023C136.905 18.9982 137.644 18.4083 138.481 18.0496C140.597 17.1395 142.839 17.9966 145.213 18.9067C147.258 19.6891 148.668 20.5631 150.161 21.49C152.509 22.9442 155.071 24.8486 155.145 25.1928L155.157 25.2434L155.128 25.306C155.092 25.3421 155.061 25.3662 155.013 25.3662ZM136.624 19.7614C138.421 19.8456 140.22 20.0599 141.976 20.397C144.121 20.8087 145.738 21.3167 146.916 21.6874C148.367 22.1425 150.007 22.6601 152.074 23.6231C153.101 24.1022 153.861 24.5187 154.363 24.7956C154.438 24.8365 154.513 24.8775 154.58 24.9136C153.861 24.2876 152.069 22.9538 150.031 21.6898C148.547 20.7701 147.145 19.901 145.124 19.1258C142.697 18.1965 140.6 17.3947 138.572 18.2663C137.838 18.5817 137.182 19.0848 136.624 19.7614Z" fill="black" stroke="black" stroke-width="0.4" stroke-miterlimit="10"/>
<path d="M105.962 25.6525C106.037 25.7584 107.213 24.9904 109.513 23.9817C111.949 22.9127 113.914 22.3301 115.601 21.8317C117.116 21.3839 118.954 20.847 121.434 20.3992C123.211 20.079 125.436 19.7829 128.029 19.6817C127.56 19.1087 126.745 18.2781 125.492 17.7701C123.086 16.7975 120.621 17.6473 117.628 18.7259C115.271 19.5758 113.65 20.5099 111.795 21.5909C108.637 23.4327 105.844 25.4864 105.962 25.6525Z" fill="#F2F2F2" stroke="black" stroke-width="0.4" stroke-miterlimit="10"/>
<path d="M105.977 25.7849C105.924 25.7849 105.892 25.7608 105.864 25.7199L105.832 25.6765L105.842 25.6043C105.924 25.2263 108.955 23.1101 111.735 21.4874C113.503 20.4569 115.172 19.4819 117.59 18.6127C120.395 17.604 123.043 16.6506 125.54 17.6593C126.526 18.059 127.397 18.7138 128.125 19.6046L128.277 19.7924L128.036 19.8021C125.826 19.8863 123.613 20.1271 121.458 20.5171C118.934 20.9721 117.027 21.5355 115.637 21.9472C113.929 22.4528 111.995 23.0234 109.563 24.0924C108.356 24.622 107.461 25.0843 106.867 25.39C106.321 25.6693 106.095 25.7849 105.977 25.7849ZM123.226 17.4619C121.494 17.4619 119.678 18.1168 117.672 18.839C115.276 19.701 113.616 20.6712 111.858 21.6968C109.337 23.1678 107.138 24.7183 106.366 25.3756C106.482 25.3178 106.616 25.248 106.758 25.1758C107.353 24.8676 108.252 24.4029 109.469 23.8709C111.916 22.7971 113.857 22.2241 115.572 21.7161C116.969 21.302 118.882 20.7386 121.419 20.2812C123.505 19.9056 125.646 19.6672 127.786 19.5733C127.118 18.8077 126.333 18.2396 125.456 17.8832C124.717 17.5871 123.979 17.4619 123.226 17.4619Z" fill="black" stroke="black" stroke-width="0.4" stroke-miterlimit="10"/>
<path d="M94.6016 41.7326C94.4885 41.8241 93.6226 40.5625 91.744 38.6461C89.7523 36.6117 88.0373 35.2875 86.5676 34.1487C85.2446 33.1255 83.6402 31.8905 81.3623 30.5326C79.7314 29.5599 77.646 28.4597 75.1251 27.4461C75.8107 26.9718 76.9412 26.3338 78.3748 26.2086C81.129 25.9654 83.2337 27.7639 85.7714 30.0005C87.7703 31.7604 89.009 33.3615 90.4186 35.2057C92.8216 38.3427 94.782 41.5905 94.6016 41.7326Z" fill="#F2F2F2" stroke="black" stroke-width="0.4" stroke-miterlimit="10"/>
<path d="M94.5871 41.865C94.4669 41.865 94.2985 41.6676 93.8174 41.1067C93.3508 40.5625 92.646 39.7367 91.6598 38.7304C89.6753 36.7032 87.9843 35.3959 86.4954 34.2427C85.2807 33.3037 83.6186 32.0157 81.2998 30.6337C79.3225 29.454 77.2298 28.4188 75.0794 27.5569L74.8726 27.4726L75.0578 27.345C76.1234 26.6107 77.2347 26.187 78.3652 26.0858C81.2252 25.833 83.4742 27.8121 85.8508 29.9066C87.9002 31.7099 89.1702 33.3711 90.5148 35.1287C91.59 36.5347 92.7085 38.1357 93.5817 39.5249C94.9095 41.6387 94.7699 41.7495 94.6785 41.8241C94.6473 41.8506 94.6184 41.865 94.5871 41.865ZM75.3801 27.4196C77.468 28.2695 79.4981 29.2807 81.4224 30.4291C83.7533 31.8183 85.4202 33.1087 86.6397 34.0525C88.1359 35.2105 89.8317 36.5226 91.8306 38.5619C92.8216 39.5754 93.5312 40.4012 94.0002 40.9502C94.1421 41.1163 94.2744 41.2704 94.3803 41.3883C93.9497 40.4855 92.3405 37.9118 90.3248 35.2779C88.9874 33.53 87.7246 31.8784 85.692 30.0896C83.2505 27.9397 81.1434 26.0858 78.3844 26.329C77.3621 26.4181 76.3543 26.7864 75.3801 27.4196Z" fill="black" stroke="black" stroke-width="0.4" stroke-miterlimit="10"/>
<path d="M47.2202 35.6994C47.2948 35.7933 48.1342 34.8905 49.8421 33.6121C51.6533 32.2566 53.1567 31.4428 54.446 30.7422C55.6054 30.1139 57.0101 29.3579 58.9513 28.6115C60.3416 28.0771 62.0975 27.5137 64.1782 27.0972C63.7139 26.5868 62.9298 25.8645 61.8426 25.5178C59.7523 24.8509 57.8857 25.9921 55.6246 27.4246C53.8446 28.5514 52.6732 29.6757 51.3334 30.971C49.0555 33.1787 47.1023 35.5502 47.2202 35.6994Z" fill="#F2F2F2" stroke="black" stroke-width="0.4" stroke-miterlimit="10"/>
<path d="M47.2394 35.827H47.225L47.1745 35.8222L47.1288 35.7764C46.8498 35.4249 50.0056 32.0953 51.2516 30.8867C52.5289 29.6492 53.734 28.4815 55.5621 27.3235C57.6861 25.9776 59.6946 24.7064 61.8811 25.4046C62.7422 25.6791 63.548 26.2232 64.2696 27.0177L64.4139 27.1742L64.2047 27.2151C62.4343 27.569 60.6808 28.077 58.997 28.7247C57.0246 29.483 55.5693 30.2727 54.5061 30.8481C53.2024 31.556 51.7231 32.3577 49.9166 33.7083C49.0194 34.38 48.3652 34.9458 47.9322 35.3214C47.4607 35.7259 47.3405 35.827 47.2394 35.827ZM60.5966 25.4431C58.9777 25.4431 57.4287 26.423 55.6896 27.5257C53.8831 28.6693 52.6852 29.8297 51.4176 31.0576C49.6184 32.8007 48.0958 34.5702 47.5497 35.331C47.6195 35.2732 47.6941 35.2058 47.7734 35.1384C48.2088 34.7604 48.8679 34.1922 49.7723 33.5157C51.5908 32.153 53.0797 31.3489 54.3907 30.6363C55.4587 30.056 56.9211 29.264 58.9104 28.5008C60.5388 27.8748 62.2322 27.3788 63.9449 27.0225C63.2882 26.3436 62.5714 25.8765 61.8065 25.6333C61.3952 25.5033 60.9935 25.4431 60.5966 25.4431Z" fill="black" stroke="black" stroke-width="0.4" stroke-miterlimit="10"/>
<path d="M125.775 56.2215C126.466 56.2624 128.785 56.3804 131.989 56.2215C135.895 56.0265 139.525 55.8459 143.773 54.5049C145.945 53.8212 149.084 52.5789 152.557 50.217C152.314 51.6857 151.879 53.7851 151.056 56.2215C149.978 59.4188 148.502 63.8053 144.629 67.8019C143.075 69.4053 140.176 72.3209 135.416 73.5921C133.788 74.0279 130.336 74.9018 126.418 73.5921C122.889 72.4124 120.883 70.0987 118.704 67.5876C115.896 64.3519 114.513 61.21 113.561 59.0095C112.459 56.4575 111.81 54.2112 111.418 52.5765C112.818 53.3324 114.691 54.1992 116.989 54.8877C120.344 55.8917 123.098 56.065 125.775 56.2215Z" fill="#F2F2F2" stroke="black" stroke-width="0.4" stroke-miterlimit="10"/>
<path d="M130.743 74.4035C129.422 74.4035 127.94 74.2253 126.382 73.7053C122.824 72.516 120.779 70.1614 118.617 67.6671C115.74 64.3495 114.364 61.1643 113.455 59.0577C112.555 56.9775 111.834 54.8059 111.307 52.6054L111.244 52.343L111.48 52.4706C113.251 53.424 115.117 54.1992 117.029 54.7722C120.433 55.793 123.276 55.9567 125.785 56.1012C126.858 56.1638 129.088 56.2456 131.986 56.1012C135.854 55.9086 139.508 55.7256 143.739 54.3918C146.794 53.4288 149.738 51.9915 152.492 50.1184L152.725 49.9595L152.68 50.2363C152.341 52.2731 151.835 54.3003 151.176 56.2601C150.094 59.4718 148.612 63.8704 144.72 67.8862C143.299 69.3524 140.342 72.4028 135.452 73.7077C134.524 73.9533 132.838 74.4035 130.743 74.4035ZM111.6 52.8076C112.118 54.907 112.815 56.9751 113.674 58.9614C114.578 61.0559 115.945 64.2195 118.797 67.5082C120.938 69.9784 122.961 72.3089 126.459 73.4766C130.423 74.8007 133.901 73.8714 135.387 73.4742C140.215 72.1861 143.14 69.167 144.545 67.7177C148.398 63.7428 149.87 59.3731 150.945 56.183C151.571 54.3244 152.059 52.4056 152.393 50.4747C149.687 52.2828 146.801 53.6792 143.811 54.6205C139.549 55.9639 135.88 56.1469 131.998 56.3419C129.09 56.4864 126.848 56.4045 125.773 56.3419C123.252 56.1975 120.395 56.0314 116.962 55.0033C115.117 54.4496 113.316 53.7129 111.6 52.8076Z" fill="black" stroke="black" stroke-width="0.4" stroke-miterlimit="10"/>
<path d="M59.786 61.5806C60.9357 60.5188 62.1168 60.0253 62.5714 59.864C64.6497 59.1321 66.7351 60.0542 69.2127 61.1496C69.8525 61.4337 72.5778 62.6712 75.854 65.4375C77.658 66.9615 79.005 68.4205 79.9239 69.5111C76.5347 67.3515 73.5015 66.1381 71.3535 65.4375C67.4664 64.1663 65.5132 64.253 64.4981 64.3661C62.2371 64.6141 60.6519 65.4182 60.2141 65.6518C58.5159 66.5546 57.407 67.6958 56.7864 68.4397C56.8586 67.2528 57.1545 65.0499 58.5015 63.0781C59.0692 62.2499 59.6657 61.6937 59.786 61.5806Z" fill="#F2F2F2" stroke="black" stroke-width="0.4" stroke-miterlimit="10"/>
<path d="M80.5252 70.0408L79.8614 69.6171C77.1481 67.8884 74.2736 66.5209 71.3174 65.5555C67.5939 64.3373 65.6503 64.3638 64.5126 64.4889C62.4872 64.7104 60.9863 65.3822 60.2719 65.7626C58.9705 66.4535 57.8304 67.3828 56.8803 68.5216L56.6445 68.8033L56.6662 68.4374C56.7552 66.9952 57.1256 64.8814 58.4005 63.0155C58.9321 62.2355 59.4901 61.6914 59.7042 61.4939C60.8828 60.4057 62.0735 59.9146 62.5305 59.7533C64.6545 59.0069 66.7881 59.9507 69.2608 61.0437C70.4924 61.5878 72.994 62.8711 75.931 65.3509C77.403 66.5932 78.7765 67.9679 80.0153 69.4389L80.5252 70.0408ZM65.5565 64.1904C66.7784 64.1904 68.5921 64.4095 71.3944 65.3268C74.1245 66.22 76.7873 67.4527 79.3177 68.9935C78.2257 67.7584 77.0374 66.5956 75.777 65.5314C72.7558 62.9794 70.146 61.6938 69.1646 61.2604C66.74 60.1866 64.6449 59.2621 62.6123 59.9772C62.2659 60.1 61.0464 60.5815 59.8678 61.6673C59.6585 61.8599 59.1173 62.3896 58.6001 63.1479C57.46 64.8188 57.0583 66.6967 56.9332 68.0859C57.852 67.0506 58.9369 66.1959 60.1564 65.5483C60.8852 65.1607 62.4199 64.4745 64.4837 64.2482C64.7844 64.2169 65.1356 64.1904 65.5565 64.1904Z" fill="black" stroke="black" stroke-width="0.4" stroke-miterlimit="10"/>
</g>
<defs>
<clipPath id="clip0_3_52">
<rect width="206" height="84" fill="white"/>
</clipPath>
</defs>
</svg>
