<svg width="95" height="38" viewBox="0 0 95 38" fill="none" xmlns="http://www.w3.org/2000/svg">
<g clip-path="url(#clip0_49_41)">
<path d="M21.7652 19.6502C21.692 19.2985 21.5622 18.8171 21.3193 18.2779C20.5017 16.4678 19.0841 15.5257 18.6825 15.2665C16.6203 13.9345 14.4328 14.039 13.5598 14.0804C13.2348 14.0956 12.0667 14.295 9.73392 14.6968C8.01675 14.9909 7.79822 15.0475 7.19477 15.0846C6.09215 15.1499 4.85641 15.2251 3.45317 14.686C2.80424 14.4365 1.36772 13.8865 0.592328 12.4423C0.504694 12.2801 0.18633 11.6603 0.114227 10.7901C-0.0188866 9.1869 0.786452 8.01717 1.04824 7.64904C1.34664 7.22972 1.91237 6.43465 2.99725 5.99246C4.30953 5.45769 5.8481 5.65701 6.98734 6.42812C7.83039 6.99773 8.24637 7.74053 8.42829 8.12717C8.35397 8.38421 8.27965 8.64015 8.20422 8.89501C8.06223 8.61728 7.27797 7.16328 5.52198 6.65357C5.20361 6.56099 3.25128 6.0284 1.76595 7.30596C1.65391 7.40289 0.494711 8.42341 0.516896 10.0223C0.532426 11.155 1.13144 11.9337 1.44869 12.3465C1.5929 12.5327 2.22852 13.3311 3.42654 13.8789C4.88192 14.5433 6.22748 14.4093 8.20311 14.185C10.0623 13.9747 10.1532 13.7253 12.4594 13.4334C14.1233 13.2232 14.9542 13.1187 15.9581 13.2679C16.4284 13.3376 18.0591 13.623 19.7197 14.8221C20.2555 15.2087 21.5988 16.2042 22.4241 18.0438C22.8268 18.939 22.9754 19.745 23.0375 20.2928" fill="white"/>
<path d="M21.7652 19.6502C21.692 19.2985 21.5622 18.8171 21.3193 18.2779C20.5017 16.4678 19.0841 15.5257 18.6825 15.2665C16.6203 13.9345 14.4328 14.039 13.5598 14.0804C13.2348 14.0956 12.0667 14.295 9.73392 14.6968C8.01675 14.9909 7.79822 15.0475 7.19477 15.0846C6.09215 15.1499 4.85641 15.2251 3.45317 14.686C2.80424 14.4365 1.36772 13.8865 0.592328 12.4423C0.504694 12.2801 0.18633 11.6603 0.114227 10.7901C-0.0188866 9.1869 0.786452 8.01717 1.04824 7.64904C1.34664 7.22972 1.91237 6.43465 2.99725 5.99246C4.30953 5.45769 5.8481 5.65701 6.98734 6.42812C7.83039 6.99773 8.24637 7.74053 8.42829 8.12717C8.35397 8.38421 8.27965 8.64015 8.20422 8.89501C8.06223 8.61728 7.27797 7.16328 5.52198 6.65357C5.20361 6.56099 3.25128 6.0284 1.76595 7.30596C1.65391 7.40289 0.494711 8.42341 0.516896 10.0223C0.532426 11.155 1.13144 11.9337 1.44869 12.3465C1.5929 12.5327 2.22852 13.3311 3.42654 13.8789C4.88192 14.5433 6.22748 14.4093 8.20311 14.185C10.0623 13.9747 10.1532 13.7253 12.4594 13.4334C14.1233 13.2232 14.9542 13.1187 15.9581 13.2679C16.4284 13.3376 18.0591 13.623 19.7197 14.8221C20.2555 15.2087 21.5988 16.2042 22.4241 18.0438C22.8268 18.939 22.9754 19.745 23.0375 20.2928" stroke="white" stroke-width="0.4" stroke-miterlimit="10"/>
<path d="M22.9887 20.3015C22.9022 19.525 22.697 18.7724 22.3797 18.0677C21.5422 16.2042 20.1501 15.1978 19.6931 14.8678C18.1944 13.7852 16.708 13.4356 15.9559 13.3234C14.9587 13.1742 14.1278 13.2799 12.4728 13.489C11.2947 13.6382 10.709 13.7733 10.1433 13.904C9.61968 14.0248 9.12494 14.1381 8.21533 14.2405C6.29516 14.4572 4.90856 14.6141 3.40881 13.9301C2.284 13.416 1.63618 12.6765 1.40989 12.3813C1.08487 11.9598 0.481417 11.1757 0.465887 10.0255C0.441483 8.42232 1.60068 7.38111 1.7338 7.26675C3.16033 6.0382 5.0095 6.44772 5.54196 6.60237C7.09163 7.05328 7.90695 8.24261 8.19314 8.75124L8.37285 8.13261C8.14545 7.65448 7.71726 6.98466 6.95962 6.47277C5.80264 5.68859 4.29291 5.52413 3.02167 6.04256C1.95122 6.47821 1.39547 7.26021 1.09707 7.67953C0.393784 8.66738 0.0820755 9.71295 0.171927 10.7858C0.236266 11.5612 0.495838 12.1417 0.643372 12.4173C1.40878 13.843 2.80425 14.3777 3.47537 14.6359C4.86641 15.1684 6.10215 15.0944 7.19257 15.0301C7.66291 15.0018 7.90584 14.9593 8.81101 14.8014C9.05949 14.7578 9.35789 14.7056 9.72506 14.6424C12.059 14.2416 13.2293 14.0401 13.5576 14.0248C14.3996 13.9845 16.637 13.8778 18.7136 15.2196C19.9016 15.9875 20.8212 17.0363 21.3703 18.254C21.5689 18.6951 21.7208 19.1612 21.8196 19.6372L21.7109 19.659C21.6132 19.1906 21.4646 18.7321 21.2682 18.2986C20.7269 17.1006 19.8217 16.0681 18.6515 15.3111C16.6048 13.9889 14.394 14.0946 13.5621 14.1338C13.2404 14.149 12.0701 14.3494 9.74281 14.7502C9.37675 14.8134 9.07835 14.8657 8.82987 14.9092C7.92026 15.0682 7.67622 15.1107 7.19812 15.139C6.0966 15.2044 4.84755 15.2795 3.43322 14.7371C2.80425 14.4964 1.32891 13.9301 0.543537 12.4685C0.391565 12.1842 0.126447 11.5895 0.0598899 10.7945C-0.0310712 9.69661 0.286183 8.62708 1.00389 7.61745C1.30894 7.18942 1.87689 6.38999 2.9773 5.94236C4.28293 5.40977 5.83259 5.57967 7.02063 6.38455C7.80933 6.91822 8.24972 7.61636 8.48045 8.10647L8.48932 8.12499L8.22088 9.04531L8.15654 8.92115C7.95132 8.52361 7.15486 7.18615 5.50757 6.70802C4.98843 6.55772 3.18806 6.1591 1.80368 7.34952C1.675 7.46061 0.547974 8.47133 0.573487 10.0244C0.589017 11.1386 1.17805 11.9043 1.4953 12.316C1.71716 12.6035 2.35167 13.3278 3.45207 13.831C4.92409 14.503 6.29849 14.3483 8.1998 14.1327C9.10275 14.0303 9.59417 13.917 10.1144 13.7983C10.6569 13.6731 11.2714 13.5315 12.455 13.3823C14.1211 13.1721 14.9575 13.0664 15.9692 13.2167C16.7324 13.33 18.2377 13.6839 19.7552 14.7807C20.2178 15.1151 21.6288 16.1334 22.4774 18.0242C22.7991 18.7408 23.0065 19.5021 23.0952 20.2896L22.9887 20.3026V20.3015Z" fill="black" stroke="white" stroke-width="0.4" stroke-miterlimit="10"/>
<path d="M24.4552 21.1881C24.7902 20.8831 25.2783 20.3603 25.6543 19.5925C25.8462 19.2004 26.3532 18.1276 26.1557 16.7607C25.9483 15.3296 25.0908 14.4191 24.6582 13.9736C23.2638 12.5371 21.5223 12.2005 20.6526 12.0317C19.5832 11.8237 18.7069 11.8596 17.9426 11.8923C16.7413 11.9413 16.5826 12.0949 14.8688 12.2735C13.4689 12.4205 12.6868 12.5011 11.6563 12.4075C10.7057 12.3214 9.71839 12.231 8.63352 11.6679C6.72222 10.6757 5.9191 8.94401 5.6795 8.40706C5.39774 7.77536 5.01726 6.67098 5.07827 5.28233C5.15259 3.59634 5.83813 2.40483 6.1576 1.86352C6.53365 1.22747 6.93299 0.752605 7.22917 0.436755L6.1809 0.113281C5.77157 0.529332 4.15424 2.26868 4.08213 4.95667C4.01558 7.43555 5.30567 9.12916 5.73275 9.67264C7.84038 12.3541 11.0484 12.7603 11.6142 12.8311C13.3801 13.0544 15.4356 12.7658 16.6847 12.5806C17.1661 12.5088 18.3187 12.3225 19.8639 12.3399C20.9621 12.353 21.5245 12.365 22.2145 12.6503C23.5467 13.2014 24.2345 14.2917 24.4707 14.6761C24.6438 14.9593 24.9799 15.518 25.1263 16.3316C25.377 17.717 24.8923 18.8029 24.7325 19.1296C24.3886 19.8321 23.9283 20.307 23.6077 20.5858" fill="white"/>
<path d="M24.4552 21.1881C24.7902 20.8831 25.2783 20.3603 25.6543 19.5925C25.8462 19.2004 26.3532 18.1276 26.1557 16.7607C25.9483 15.3296 25.0908 14.4191 24.6582 13.9736C23.2638 12.5371 21.5223 12.2005 20.6526 12.0317C19.5832 11.8237 18.7069 11.8596 17.9426 11.8923C16.7413 11.9413 16.5826 12.0949 14.8688 12.2735C13.4689 12.4205 12.6868 12.5011 11.6563 12.4075C10.7057 12.3214 9.71839 12.231 8.63352 11.6679C6.72222 10.6757 5.9191 8.94401 5.6795 8.40706C5.39774 7.77536 5.01726 6.67098 5.07827 5.28233C5.15259 3.59634 5.83813 2.40483 6.1576 1.86352C6.53365 1.22747 6.93299 0.752605 7.22917 0.436755L6.1809 0.113281C5.77157 0.529332 4.15424 2.26868 4.08213 4.95667C4.01558 7.43555 5.30567 9.12916 5.73275 9.67264C7.84038 12.3541 11.0484 12.7603 11.6142 12.8311C13.3801 13.0544 15.4356 12.7658 16.6847 12.5806C17.1661 12.5088 18.3187 12.3225 19.8639 12.3399C20.9621 12.353 21.5245 12.365 22.2145 12.6503C23.5467 13.2014 24.2345 14.2917 24.4707 14.6761C24.6438 14.9593 24.9799 15.518 25.1263 16.3316C25.377 17.717 24.8923 18.8029 24.7325 19.1296C24.3886 19.8321 23.9283 20.307 23.6077 20.5858" stroke="white" stroke-width="0.4" stroke-miterlimit="10"/>
<path d="M25.7043 19.6176C25.4081 20.222 24.9999 20.7644 24.4929 21.2295L24.4175 21.15C24.9144 20.6936 25.3138 20.1621 25.6044 19.5696C25.7764 19.2178 26.2999 18.1483 26.1014 16.7695C25.8928 15.3253 25.001 14.4049 24.6194 14.0129C23.2361 12.5883 21.4845 12.2495 20.6426 12.0862C19.5799 11.8803 18.7125 11.9152 17.9459 11.9478C17.297 11.974 16.9465 12.0328 16.5028 12.1069C16.1278 12.17 15.6608 12.2474 14.8754 12.329C13.4656 12.4761 12.6879 12.5578 11.6519 12.463C10.6935 12.377 9.70287 12.2866 8.608 11.718C7.7106 11.2519 6.46487 10.3033 5.62958 8.43102C5.3212 7.73833 4.9629 6.62959 5.02502 5.28124C5.10157 3.54733 5.83591 2.30462 6.11212 1.83738C6.40053 1.34836 6.7433 0.885478 7.13155 0.463982L6.19865 0.175361C5.58188 0.810328 4.20638 2.49522 4.14093 4.95776C4.09767 6.62305 4.64787 8.19795 5.78045 9.63888C7.66844 12.0415 10.496 12.634 11.6253 12.7767C13.4467 13.0065 15.6298 12.6819 16.6802 12.5262L16.7579 12.5142C17.2892 12.4347 18.3963 12.2691 19.8683 12.2855C20.9377 12.2985 21.5267 12.3051 22.24 12.6002C23.1529 12.9771 23.9205 13.6665 24.5229 14.6478C24.676 14.8972 25.0343 15.4821 25.1862 16.3218C25.4181 17.6026 25.0365 18.645 24.788 19.1525C24.5151 19.7112 24.1302 20.2068 23.6488 20.6261L23.5744 20.5444C24.0448 20.1349 24.4197 19.6502 24.6859 19.1046C24.9278 18.6101 25.3016 17.5907 25.0753 16.3403C24.9278 15.5213 24.5883 14.9691 24.4264 14.7034C23.8362 13.7427 23.0864 13.0686 22.1956 12.7004C21.53 12.4249 21.0009 12.4086 19.8661 12.3955C18.403 12.3791 17.3026 12.5436 16.7734 12.6231L16.6958 12.6351C15.642 12.7919 13.4478 13.1176 11.6097 12.8856C10.4672 12.7418 7.60521 12.1439 5.6917 9.70749C4.54249 8.24587 3.98563 6.6481 4.02889 4.95667C4.09434 2.42007 5.52642 0.697057 6.13874 0.0740709L6.16204 0.0501099L7.32678 0.410614L7.26799 0.473784C6.86199 0.907261 6.5037 1.38321 6.20419 1.89184C5.90579 2.39611 5.20695 3.58 5.13152 5.28559C5.07272 6.61325 5.42326 7.70566 5.72831 8.38637C6.5514 10.2303 7.77493 11.1626 8.65681 11.6211C9.73171 12.1798 10.7112 12.2691 11.6585 12.3541C12.6846 12.4467 13.4567 12.3661 14.8599 12.2201C15.642 12.1384 16.1056 12.0611 16.4806 11.999C16.9287 11.9239 17.2815 11.8651 17.9382 11.8378C18.7102 11.8063 19.5855 11.7703 20.6615 11.9783C21.5156 12.1439 23.2905 12.4881 24.697 13.9366C25.0853 14.3374 25.996 15.2752 26.209 16.7542C26.2411 16.9786 26.2556 17.1953 26.2545 17.4022C26.2511 18.4947 25.8496 19.3148 25.7031 19.6176H25.7043Z" fill="black" stroke="white" stroke-width="0.4" stroke-miterlimit="10"/>
<path d="M73.5387 16.8729C73.6009 17.2269 73.714 17.7115 73.9403 18.2572C74.6979 20.0913 76.0868 21.077 76.4783 21.3481C78.4961 22.7433 80.687 22.7063 81.5611 22.6911C81.8861 22.6856 83.0586 22.5212 85.4047 22.1922C87.1286 21.9504 87.3493 21.9014 87.9539 21.8829C89.0576 21.8513 90.2956 21.8154 91.6811 22.3959C92.3233 22.666 93.7399 23.2607 94.4687 24.7267C94.5508 24.8922 94.8481 25.5206 94.8935 26.393C94.9756 27.9995 94.1337 29.1442 93.8597 29.5036C93.5491 29.9142 92.9578 30.6908 91.8596 31.0992C90.5296 31.5937 88.9988 31.3464 87.884 30.5405C87.062 29.9436 86.6682 29.1888 86.4996 28.7968C86.5828 28.543 86.6649 28.2892 86.7492 28.0355C86.8834 28.3175 87.6189 29.7955 89.3582 30.3586C89.6733 30.461 91.6067 31.0545 93.132 29.8216C93.2474 29.728 94.4387 28.7434 94.4665 27.1445C94.4875 26.0118 93.914 25.2157 93.609 24.792C93.4725 24.6014 92.8624 23.7835 91.6811 23.1997C90.2467 22.4907 88.899 22.5843 86.9156 22.7466C85.052 22.8991 84.9522 23.1463 82.6371 23.3663C80.9687 23.5253 80.1345 23.6048 79.1351 23.424C78.667 23.3391 77.0452 23.0036 75.4245 21.7544C74.9009 21.3514 73.5909 20.3135 72.8244 18.45C72.4517 17.5427 72.3285 16.7324 72.2841 16.1824" fill="white"/>
<path d="M73.5387 16.8729C73.6009 17.2269 73.714 17.7115 73.9403 18.2572C74.6979 20.0913 76.0868 21.077 76.4783 21.3481C78.4961 22.7433 80.687 22.7063 81.5611 22.6911C81.8861 22.6856 83.0586 22.5212 85.4047 22.1922C87.1286 21.9504 87.3493 21.9014 87.9539 21.8829C89.0576 21.8513 90.2956 21.8154 91.6811 22.3959C92.3233 22.666 93.7399 23.2607 94.4687 24.7267C94.5508 24.8922 94.8481 25.5206 94.8935 26.393C94.9756 27.9995 94.1337 29.1442 93.8597 29.5036C93.5491 29.9142 92.9578 30.6908 91.8596 31.0992C90.5296 31.5937 88.9988 31.3464 87.884 30.5405C87.062 29.9436 86.6682 29.1888 86.4996 28.7968C86.5828 28.543 86.6649 28.2892 86.7492 28.0355C86.8834 28.3175 87.6189 29.7955 89.3582 30.3586C89.6733 30.461 91.6067 31.0545 93.132 29.8216C93.2474 29.728 94.4387 28.7434 94.4665 27.1445C94.4875 26.0118 93.914 25.2157 93.609 24.792C93.4725 24.6014 92.8624 23.7835 91.6811 23.1997C90.2467 22.4907 88.899 22.5843 86.9156 22.7466C85.052 22.8991 84.9522 23.1463 82.6371 23.3663C80.9687 23.5253 80.1345 23.6048 79.1351 23.424C78.667 23.3391 77.0452 23.0036 75.4245 21.7544C74.9009 21.3514 73.5909 20.3135 72.8244 18.45C72.4517 17.5427 72.3285 16.7324 72.2841 16.1824" stroke="white" stroke-width="0.4" stroke-miterlimit="10"/>
<path d="M93.9085 29.5374C93.5901 29.9567 92.9967 30.7376 91.8829 31.1515C90.5607 31.6438 89.0177 31.427 87.8551 30.5862C87.0842 30.0286 86.666 29.3185 86.4519 28.8207L86.4441 28.8022L86.7425 27.8895L86.8024 28.0159C86.9943 28.4199 87.7464 29.7813 89.3782 30.3096C89.8918 30.4762 91.6777 30.9304 93.0987 29.7824C93.2296 29.6768 94.3855 28.6987 94.4132 27.1467C94.4365 26.0358 93.8697 25.2494 93.5657 24.8269C93.3527 24.5328 92.7426 23.7889 91.6578 23.252C90.209 22.5353 88.8313 22.6486 86.9222 22.8043C86.016 22.8784 85.5212 22.9764 84.9976 23.0799C84.4508 23.1888 83.8329 23.3108 82.6448 23.424C80.9732 23.5831 80.1345 23.6626 79.1273 23.4807C78.3686 23.3424 76.8744 22.9426 75.3924 21.8001C74.9387 21.4516 73.562 20.3886 72.7745 18.4739C72.4761 17.7496 72.2919 16.9807 72.2298 16.1911L72.3407 16.1824C72.4017 16.9611 72.5825 17.7191 72.8765 18.4336C73.653 20.3233 75.013 21.371 75.46 21.7152C76.9232 22.8435 78.3974 23.2389 79.1462 23.3739C80.139 23.5526 80.9732 23.4741 82.6337 23.3151C83.8162 23.203 84.4053 23.0864 84.9754 22.9731C85.5023 22.8675 85.9993 22.7706 86.9122 22.6954C88.838 22.5375 90.229 22.4231 91.7077 23.1539C92.8158 23.7018 93.4393 24.4609 93.6567 24.7637C93.9673 25.195 94.5452 26.002 94.5241 27.1478C94.4953 28.7488 93.3039 29.7563 93.1686 29.8663C91.7043 31.0502 89.8696 30.584 89.3427 30.413C87.8074 29.9153 87.0321 28.7009 86.7614 28.1836L86.5606 28.7968C86.7736 29.2814 87.1796 29.9632 87.9206 30.4991C89.0509 31.3181 90.5551 31.5294 91.843 31.0502C92.9268 30.6472 93.5069 29.8826 93.8186 29.4731C94.5519 28.507 94.8957 27.4724 94.8414 26.3974C94.8026 25.6197 94.5619 25.0338 94.4221 24.7528C93.7022 23.3032 92.3244 22.7248 91.6622 22.4482C90.2889 21.872 89.0498 21.908 87.9583 21.9396C87.4869 21.9537 87.2428 21.9875 86.3343 22.1182C86.0847 22.1541 85.7841 22.1977 85.4136 22.2489C83.0697 22.5767 81.8927 22.7422 81.5644 22.7477C80.7213 22.7619 78.4817 22.8 76.4495 21.395C75.287 20.5912 74.4018 19.513 73.8915 18.2801C73.7062 17.8324 73.5709 17.363 73.4866 16.8838L73.5964 16.8653C73.6785 17.3369 73.8127 17.7987 73.9947 18.2387C74.4972 19.4531 75.3691 20.5139 76.5138 21.3057C78.5172 22.6911 80.7302 22.654 81.5633 22.6388C81.885 22.6322 83.0597 22.4678 85.4003 22.14C85.7697 22.0877 86.0703 22.0452 86.3199 22.0093C87.2328 21.8797 87.478 21.8437 87.9561 21.8295C89.0587 21.798 90.31 21.7609 91.7066 22.3469C92.3289 22.6083 93.7842 23.2193 94.5219 24.7038C94.665 24.9913 94.9113 25.5936 94.9523 26.3909C94.9556 26.4682 94.9579 26.5455 94.9579 26.6228C94.9579 27.6401 94.604 28.6203 93.9096 29.5374H93.9085Z" fill="black" stroke="white" stroke-width="0.4" stroke-miterlimit="10"/>
<path d="M70.9009 15.2479C70.557 15.5441 70.0512 16.0506 69.6518 16.8064C69.4477 17.192 68.9064 18.2485 69.0606 19.6208C69.2214 21.0584 70.0501 21.9951 70.4683 22.4525C71.8171 23.9316 73.5454 24.3226 74.4106 24.5175C75.4733 24.7582 76.3497 24.7495 77.1151 24.7408C78.3175 24.7277 78.4806 24.5796 80.1989 24.4544C81.6032 24.3509 82.3875 24.2943 83.4147 24.4195C84.362 24.535 85.3459 24.6548 86.412 25.2516C88.2911 26.3037 89.0387 28.0583 89.2606 28.6018C89.5224 29.2422 89.8674 30.3586 89.7609 31.744C89.6322 33.4267 88.9078 34.5975 88.5717 35.129C88.1746 35.7531 87.7609 36.2149 87.4547 36.522L88.493 36.8782C88.9145 36.4741 90.5873 34.7859 90.7448 32.1023C90.8901 29.6278 89.6566 27.895 89.2462 27.3384C87.2262 24.5927 84.0337 24.0895 83.469 24.0002C81.7097 23.7225 79.6465 23.9479 78.393 24.095C77.9093 24.1527 76.7523 24.303 75.2082 24.2365C74.1111 24.1897 73.5487 24.1614 72.8676 23.8543C71.5542 23.2629 70.8998 22.1519 70.6768 21.7598C70.5115 21.4712 70.1954 20.9027 70.0734 20.0848C69.867 18.6928 70.3862 17.6211 70.5559 17.2998C70.9231 16.6071 71.3978 16.1475 71.7273 15.8785" fill="white"/>
<path d="M70.9009 15.2479C70.557 15.5441 70.0512 16.0506 69.6518 16.8064C69.4477 17.192 68.9064 18.2485 69.0606 19.6208C69.2214 21.0584 70.0501 21.9951 70.4683 22.4525C71.8171 23.9316 73.5454 24.3226 74.4106 24.5175C75.4733 24.7582 76.3497 24.7495 77.1151 24.7408C78.3175 24.7277 78.4806 24.5796 80.1989 24.4544C81.6032 24.3509 82.3875 24.2943 83.4147 24.4195C84.362 24.535 85.3459 24.6548 86.412 25.2516C88.2911 26.3037 89.0387 28.0583 89.2606 28.6018C89.5224 29.2422 89.8674 30.3586 89.7609 31.744C89.6322 33.4267 88.9078 34.5975 88.5717 35.129C88.1746 35.7531 87.7608 36.2149 87.4547 36.522L88.493 36.8782C88.9145 36.4741 90.5873 34.7859 90.7448 32.1023C90.8901 29.6278 89.6566 27.895 89.2462 27.3384C87.2262 24.5927 84.0337 24.0895 83.469 24.0002C81.7097 23.7225 79.6465 23.9479 78.393 24.095C77.9093 24.1527 76.7523 24.303 75.2082 24.2365C74.1111 24.1897 73.5487 24.1614 72.8676 23.8543C71.5542 23.2629 70.8998 22.1519 70.6768 21.7598C70.5115 21.4712 70.1954 20.9027 70.0734 20.0848C69.867 18.6928 70.3862 17.6211 70.5559 17.2998C70.9231 16.6071 71.3978 16.1475 71.7273 15.8785" stroke="white" stroke-width="0.4" stroke-miterlimit="10"/>
<path d="M90.8036 32.1088C90.655 34.6389 89.1674 36.3173 88.5351 36.9206L88.5107 36.9446L87.3571 36.5482L87.4181 36.4872C87.8385 36.0657 88.2123 35.6017 88.5274 35.1029C88.8413 34.6073 89.5767 33.4463 89.7076 31.7429C89.8086 30.4174 89.4924 29.3152 89.2107 28.6247C88.4475 26.7568 87.2528 25.7864 86.3864 25.3017C85.3304 24.7103 84.3542 24.5916 83.4091 24.4762C82.3864 24.3509 81.6121 24.4075 80.2044 24.511C79.4202 24.5677 78.9531 24.6308 78.5782 24.682C78.1278 24.743 77.7729 24.7898 77.1162 24.7975C76.343 24.8051 75.4678 24.8149 74.3984 24.5731C73.5509 24.3814 71.7883 23.9839 70.4283 22.4918C70.0523 22.0801 69.1726 21.1151 69.0073 19.6306C68.8487 18.2136 69.4178 17.1386 69.6041 16.7858C69.9203 16.1889 70.344 15.6607 70.8654 15.2109L70.9386 15.2926C70.4272 15.7326 70.0112 16.251 69.7028 16.8348C69.5198 17.1811 68.9618 18.2343 69.1171 19.6175C69.2802 21.0672 70.1421 22.0147 70.5115 22.4188C71.8482 23.8848 73.5887 24.279 74.4251 24.4675C75.4811 24.706 76.3497 24.6973 77.1162 24.6885C77.7651 24.6831 78.1179 24.6352 78.5638 24.5742C78.9409 24.523 79.4102 24.4609 80.1967 24.4021C81.611 24.2975 82.3908 24.2409 83.4247 24.3673C84.3786 24.4827 85.3659 24.6036 86.4419 25.2059C87.3238 25.6993 88.5385 26.686 89.3138 28.5822C89.6011 29.2836 89.9206 30.4022 89.8186 31.7483C89.6854 33.479 88.9123 34.6977 88.6216 35.1573C88.3166 35.6376 87.9583 36.0885 87.5578 36.4981L88.4819 36.815C89.1186 36.2018 90.5485 34.5583 90.6927 32.099C90.7892 30.4359 90.29 28.8458 89.204 27.37C87.3926 24.9096 84.5861 24.2322 83.4624 24.0547C81.6476 23.7682 79.4557 24.0264 78.4018 24.1494L78.3231 24.1592C77.7895 24.2235 76.6791 24.3553 75.2082 24.2921C74.14 24.2464 73.5521 24.2213 72.8477 23.9044C71.9469 23.4992 71.2015 22.7869 70.6313 21.7871C70.486 21.5333 70.1466 20.9376 70.0212 20.0935C69.8304 18.8061 70.2453 17.7758 70.5093 17.2759C70.7999 16.7248 71.1993 16.2412 71.694 15.8371L71.765 15.921C71.2825 16.3163 70.892 16.7879 70.608 17.326C70.3507 17.815 69.9447 18.8203 70.131 20.0782C70.253 20.9027 70.5736 21.4636 70.7278 21.7348C71.2858 22.7129 72.0157 23.411 72.8931 23.8063C73.5498 24.1026 74.079 24.1364 75.2126 24.1843C76.6736 24.2464 77.7784 24.1146 78.3098 24.0525L78.3885 24.0427C79.4468 23.9185 81.6498 23.6604 83.479 23.9479C84.616 24.1276 87.458 24.8138 89.2928 27.3079C90.3044 28.6835 90.8147 30.1593 90.8136 31.7004C90.8136 31.8355 90.8092 31.9705 90.8047 32.1088H90.8036Z" fill="black" stroke="white" stroke-width="0.4" stroke-miterlimit="10"/>
<path d="M46.5909 21.9886C46.4534 23.1823 46.1517 24.9358 45.4051 26.9365C44.7673 28.6454 41.811 36.5689 35.6235 37.511C33.0555 37.902 30.7371 36.9686 30.1891 36.7344C28.4375 35.9862 27.3782 34.9559 26.4342 34.0181C23.8518 31.4532 22.7913 28.6901 22.2843 27.3243C21.3969 24.9369 21.1961 23.0505 20.9998 21.212C20.5439 16.9437 21.0564 13.5957 21.296 12.0927C21.3548 11.7257 21.6254 10.0691 22.1856 7.92129C22.5007 6.71235 22.8168 5.69183 23.0753 4.91418C23.6554 5.66242 24.6393 6.74067 26.138 7.63049C28.0393 8.75884 29.7775 8.99518 31.2762 9.18251C34.8725 9.63233 37.7067 8.99083 39.7733 8.50289C41.425 8.11298 43.7101 7.43118 46.2947 6.17432" fill="#CAFF8A"/>
<path d="M46.5909 21.9886C46.4534 23.1823 46.1517 24.9358 45.4051 26.9365C44.7673 28.6454 41.811 36.5689 35.6235 37.511C33.0555 37.902 30.7371 36.9686 30.1891 36.7344C28.4375 35.9862 27.3782 34.9559 26.4342 34.0181C23.8518 31.4532 22.7913 28.6901 22.2843 27.3243C21.3969 24.9369 21.1961 23.0505 20.9998 21.212C20.5439 16.9437 21.0564 13.5957 21.296 12.0927C21.3548 11.7257 21.6254 10.0691 22.1856 7.92129C22.5007 6.71235 22.8168 5.69183 23.0753 4.91418C23.6554 5.66242 24.6393 6.74067 26.138 7.63049C28.0393 8.75884 29.7775 8.99518 31.2762 9.18251C34.8725 9.63233 37.7067 8.99083 39.7733 8.50289C41.425 8.11298 43.7101 7.43118 46.2947 6.17432" stroke="black" stroke-width="0.4" stroke-miterlimit="10"/>
<path d="M34.3434 37.6602C32.4565 37.6602 30.8535 37.0775 30.168 36.7845C28.371 36.0178 27.2761 34.9297 26.3965 34.0562C23.753 31.4314 22.6881 28.5659 22.2344 27.3428C21.3448 24.9489 21.1429 23.0527 20.9466 21.2186C20.4807 16.8522 21.0342 13.3888 21.2427 12.0851C21.337 11.4948 21.6132 9.9057 22.1335 7.90822C22.3964 6.89859 22.6959 5.8857 23.0242 4.89785L23.0575 4.79874L23.1219 4.88151C23.9738 5.98045 24.9999 6.88988 26.1691 7.58366C28.0992 8.72943 29.8663 8.95053 31.2851 9.12806C34.9435 9.58658 37.8431 8.90261 39.7622 8.44952C41.9907 7.92347 44.1816 7.14147 46.2715 6.12531L46.3203 6.22333C44.2226 7.24385 42.024 8.02803 39.7877 8.55626C37.8609 9.01043 34.9501 9.69659 31.2706 9.23588C29.8408 9.05726 28.0615 8.83399 26.1114 7.67624C24.9588 6.99226 23.9449 6.10134 23.0975 5.02854C22.7835 5.98263 22.4951 6.95958 22.2422 7.93436C21.7231 9.92639 21.448 11.5122 21.3537 12.1003C21.1451 13.4007 20.5927 16.8533 21.0575 21.2055C21.2527 23.0331 21.4546 24.9227 22.3387 27.3047C22.7913 28.5212 23.8495 31.3704 26.4763 33.9789C27.3493 34.8459 28.4364 35.9252 30.2135 36.6832C31.0421 37.0372 33.2263 37.8203 35.6168 37.4554C39.5858 36.851 43.0446 33.1076 45.3552 26.9158C45.9453 25.3333 46.3436 23.6724 46.5377 21.981L46.6475 21.9929C46.4523 23.6931 46.0529 25.3627 45.4584 26.9529C45.1245 27.8471 44.2381 30.2214 42.643 32.5391C40.6241 35.471 38.2658 37.1614 35.6334 37.5622C35.1931 37.6319 34.7616 37.6602 34.3434 37.6602Z" fill="black" stroke="black" stroke-width="0.4" stroke-miterlimit="10"/>
<path d="M46.0485 7.09793C45.3042 12.0372 45.5904 16.0397 45.9498 18.6428C47.3974 29.1388 52.5578 35.1977 54.9416 36.5896C56.042 37.2322 57.2145 37.56 57.2145 37.56C57.6605 37.6842 59.3821 38.1296 61.5618 37.7539C64.0222 37.3302 65.6484 36.1049 66.4038 35.5222C68.6457 33.7916 69.6462 31.7865 70.7511 29.508C71.2103 28.5605 72.963 24.8051 73.4677 19.4673C73.7495 16.483 73.5321 14.1545 73.369 12.4826C73.1072 9.79899 72.6169 7.44863 72.0844 5.49799C69.6795 3.96448 67.5098 3.19229 66.0577 2.78168C58.2561 0.577267 51.6603 3.31863 50.0508 4.0429C48.3758 4.79658 47.1023 5.61235 46.2959 6.17761L46.0485 7.09793Z" fill="#FFB7FF" stroke="black" stroke-width="0.4" stroke-miterlimit="10"/>
<path d="M59.818 37.9565C58.6566 37.9565 57.7348 37.7615 57.1979 37.6112C57.1857 37.6079 56.0065 37.2747 54.9116 36.6353C53.7491 35.9557 51.86 34.1336 50.0452 31.0557C48.5921 28.5899 46.6919 24.437 45.8932 18.6482C45.3718 14.8722 45.4051 10.9829 45.9919 7.08812V7.08267L46.2448 6.14166L46.2615 6.13077C47.4417 5.30302 48.7085 4.5831 50.0253 3.9917C52.4058 2.92108 58.7342 0.654584 66.0699 2.72721C68.1809 3.32406 70.2131 4.24002 72.1122 5.45006L72.1299 5.46095L72.1355 5.48164C72.7589 7.76665 73.1915 10.1203 73.4211 12.475C73.5753 14.0499 73.8072 16.4297 73.5199 19.4705C73.065 24.2736 71.6196 27.834 70.7977 29.5298C69.7361 31.7201 68.7333 33.7894 66.4349 35.5636C65.7338 36.1049 64.0932 37.3716 61.5685 37.8061C60.945 37.9151 60.356 37.9565 59.818 37.9565ZM46.1028 7.10881C45.5183 10.9916 45.485 14.87 46.0041 18.6352C46.8006 24.4065 48.6941 28.5463 50.1417 31.0023C51.9454 34.0617 53.8179 35.8697 54.9682 36.5428C56.0498 37.1744 57.2156 37.5045 57.2278 37.5077C58.0032 37.7245 59.5961 38.037 61.5507 37.7005C64.0477 37.2703 65.6739 36.0156 66.3672 35.4798C68.6457 33.7208 69.6429 31.6634 70.6989 29.4841C71.5176 27.7959 72.9586 24.2486 73.4111 19.4618C73.6973 16.4318 73.4655 14.0586 73.3124 12.487C73.0839 10.1442 72.6535 7.80477 72.0345 5.53174C70.151 4.3326 68.1343 3.42535 66.04 2.83395C58.7387 0.771121 52.4413 3.02673 50.0719 4.0919C48.7673 4.67895 47.5127 5.39124 46.3424 6.20918L46.1028 7.10881Z" fill="black" stroke="black" stroke-width="0.4" stroke-miterlimit="10"/>
<path d="M65.0183 15.053C65.543 14.8253 66.4493 14.5215 67.5874 14.5683C69.7472 14.6565 71.1604 15.945 71.5398 16.3142C70.9363 15.0203 70.1743 14.1784 69.6629 13.6948C68.9907 13.0609 68.3695 12.4902 67.39 12.3367C67.1337 12.2964 66.2951 12.1678 65.5131 12.6275C64.6168 13.1546 64.1376 14.2546 64.2285 15.4407L65.0183 15.053Z" fill="#F2F2F2" stroke="black" stroke-width="0.4" stroke-miterlimit="10"/>
<path d="M71.5398 16.3687C71.5254 16.3687 71.5109 16.3632 71.501 16.3523C70.9951 15.86 69.603 14.7045 67.5852 14.6217C66.7166 14.5868 65.8614 14.748 65.0416 15.102L64.2529 15.4897C64.2363 15.4973 64.2163 15.4973 64.2008 15.4897C64.1841 15.481 64.1742 15.4647 64.173 15.4462C64.0776 14.2111 64.5802 13.1132 65.4842 12.5817C66.0167 12.2681 66.6612 12.1679 67.3988 12.2833C68.4149 12.4423 69.0683 13.0588 69.7006 13.6556C70.4826 14.3941 71.1183 15.2806 71.5897 16.2913C71.6008 16.3153 71.593 16.3436 71.5708 16.3589C71.562 16.3665 71.5509 16.3697 71.5398 16.3697V16.3687ZM67.35 14.5084C67.4299 14.5084 67.5098 14.5106 67.5896 14.5139C69.4055 14.5879 70.7245 15.5148 71.3623 16.0757C70.9119 15.1859 70.3285 14.3995 69.6241 13.7351C68.9751 13.123 68.3628 12.5447 67.3811 12.3911C66.67 12.28 66.0511 12.3748 65.5408 12.6754C64.6933 13.1742 64.213 14.1969 64.2773 15.3568L64.9928 15.0051C64.9928 15.0051 64.9939 15.0051 64.995 15.0051C65.756 14.6751 66.5469 14.5095 67.35 14.5095V14.5084Z" fill="black" stroke="black" stroke-width="0.4" stroke-miterlimit="10"/>
<path d="M56.9394 15.3231C56.2927 15.1412 55.1868 14.9179 53.8368 15.0857C51.2754 15.4037 49.7169 16.8958 49.3009 17.3206C49.8955 15.908 50.7219 14.9495 51.2854 14.3919C52.0242 13.66 52.7097 13 53.8601 12.7375C54.1607 12.6689 55.1468 12.4467 56.1208 12.8453C57.2367 13.3017 57.9123 14.3995 57.9167 15.6455L56.9394 15.3231Z" fill="#F2F2F2" stroke="black" stroke-width="0.4" stroke-miterlimit="10"/>
<path d="M49.3009 17.3739C49.2909 17.3739 49.2798 17.3707 49.271 17.3652C49.2488 17.3511 49.2399 17.3228 49.2499 17.2988C49.7147 16.1955 50.3858 15.2044 51.2466 14.3527C51.941 13.6654 52.6587 12.9553 53.8479 12.6841C54.7109 12.487 55.4829 12.524 56.143 12.7941C57.2667 13.2537 57.9677 14.3461 57.9722 15.6444C57.9722 15.6618 57.9633 15.6782 57.9489 15.6891C57.9345 15.6999 57.9156 15.7021 57.899 15.6967L56.9228 15.3754C55.9122 15.0911 54.8762 15.0116 53.8445 15.1401C51.4474 15.4375 49.8977 16.7902 49.342 17.3587C49.3309 17.3685 49.3164 17.3739 49.3009 17.3739ZM54.8873 12.6689C54.5667 12.6689 54.2272 12.7092 53.8723 12.7898C52.7142 13.0533 52.0076 13.7526 51.3242 14.4289C50.5422 15.2033 49.9177 16.0942 49.4651 17.081C50.1551 16.4351 51.6459 15.3013 53.829 15.0301C54.8773 14.9005 55.9278 14.98 56.9539 15.2697C56.9539 15.2697 56.9546 15.2697 56.9561 15.2697L57.859 15.5671C57.828 14.3461 57.1591 13.3267 56.0986 12.8932C55.7314 12.7429 55.3254 12.6678 54.8873 12.6678V12.6689Z" fill="black" stroke="black" stroke-width="0.4" stroke-miterlimit="10"/>
<path d="M27.8829 17.9436C27.336 17.753 26.402 17.5144 25.2672 17.6636C23.1152 17.9457 21.824 19.4139 21.4801 19.8321C21.9604 18.4293 22.6426 17.4839 23.1085 16.935C23.7197 16.2151 24.2877 15.5649 25.2528 15.3187C25.5057 15.2545 26.3321 15.0464 27.1585 15.4571C28.1047 15.9286 28.6893 17.0341 28.7104 18.279L27.8829 17.9436Z" fill="#F2F2F2" stroke="black" stroke-width="0.4" stroke-miterlimit="10"/>
<path d="M21.4801 19.8855C21.4712 19.8855 21.4624 19.8833 21.4535 19.8789C21.4302 19.8659 21.4191 19.8386 21.428 19.8136C21.8029 18.7179 22.3542 17.7377 23.0664 16.8991C23.6421 16.2216 24.2378 15.5202 25.2384 15.2654C25.966 15.0802 26.6194 15.1281 27.1829 15.408C28.1369 15.8829 28.7426 16.9829 28.7659 18.2779C28.7659 18.2964 28.757 18.3138 28.7415 18.3236C28.7259 18.3345 28.706 18.3356 28.6893 18.3291L27.8629 17.9947C27.0099 17.6974 26.1391 17.6037 25.275 17.7181C23.2661 17.9817 21.9826 19.3082 21.5245 19.867C21.5134 19.8789 21.4968 19.8855 21.4801 19.8855ZM26.0703 15.2632C25.8152 15.2632 25.5467 15.2991 25.2672 15.3699C24.2999 15.6161 23.743 16.2728 23.1518 16.9688C22.5095 17.7257 21.9993 18.6003 21.6332 19.5707C22.2167 18.9303 23.448 17.8455 25.2605 17.6081C26.1435 17.4926 27.0321 17.5874 27.9017 17.8913C27.9029 17.8913 27.904 17.8913 27.904 17.8913L28.6527 18.1951C28.6072 16.9764 28.0304 15.9504 27.133 15.5039C26.8102 15.3427 26.4541 15.2621 26.0703 15.2621V15.2632Z" fill="black" stroke="black" stroke-width="0.4" stroke-miterlimit="10"/>
<path d="M34.9157 18.2823C35.6013 18.1745 36.7571 18.0884 38.086 18.4696C40.6086 19.1939 41.9031 21.0705 42.2436 21.6009C41.9064 19.9508 41.2508 18.7702 40.7871 18.071C40.1782 17.1539 39.6102 16.324 38.4987 15.8666C38.2081 15.7468 37.2552 15.3579 36.2003 15.6575C34.9912 16.0005 34.1071 17.1169 33.8719 18.4968L34.9157 18.2823Z" fill="#F2F2F2" stroke="black" stroke-width="0.4" stroke-miterlimit="10"/>
<path d="M42.2437 21.6553C42.2248 21.6553 42.2071 21.6466 42.1971 21.6303C41.7423 20.9212 40.4311 19.1993 38.0717 18.5219C37.0556 18.23 35.9973 18.1679 34.9268 18.3356L33.883 18.5502C33.8653 18.5546 33.8464 18.5502 33.8331 18.536C33.8198 18.5241 33.8142 18.5055 33.8165 18.4881C34.0616 17.0548 34.969 15.9504 36.1848 15.6052C36.9003 15.4026 37.6867 15.4734 38.5198 15.8165C39.669 16.2891 40.2603 17.1801 40.8327 18.0416C41.5415 19.1089 42.034 20.3026 42.298 21.59C42.3036 21.6161 42.2891 21.6412 42.2647 21.651C42.2581 21.6542 42.2514 21.6553 42.2437 21.6553ZM36.0927 18.1352C36.7749 18.1352 37.4471 18.23 38.1027 18.4173C40.2614 19.037 41.5559 20.5161 42.1283 21.3297C41.8554 20.1632 41.3895 19.0784 40.7406 18.1015C40.1771 17.2541 39.5947 16.3774 38.4777 15.9177C37.6679 15.5845 36.9069 15.5148 36.2158 15.7108C35.0633 16.0376 34.1969 17.0755 33.9407 18.4282L34.9047 18.23H34.9069C35.304 18.1657 35.7 18.1352 36.0927 18.1352Z" fill="black" stroke="black" stroke-width="0.4" stroke-miterlimit="10"/>
<path d="M71.491 11.4153C71.4621 11.4577 71.0029 11.1463 70.1077 10.7356C69.1582 10.3011 68.3928 10.0647 67.7361 9.86216C67.1448 9.68027 66.4304 9.46136 65.4631 9.28056C64.771 9.15095 63.9035 9.03006 62.894 8.98976C63.076 8.75669 63.3943 8.41905 63.8824 8.21321C64.8187 7.81785 65.7793 8.16311 66.9451 8.60094C67.8636 8.9462 68.4948 9.32522 69.2181 9.76523C70.4483 10.5135 71.5353 11.3477 71.491 11.4153Z" fill="#F2F2F2" stroke="black" stroke-width="0.4" stroke-miterlimit="10"/>
<path d="M71.4865 11.4752C71.4355 11.4752 71.3434 11.4262 71.1338 11.3129C70.9031 11.1887 70.5547 11.0014 70.0844 10.7857C69.1382 10.3534 68.385 10.1203 67.7205 9.91552C67.1781 9.74779 66.436 9.51907 65.4531 9.33501C64.6134 9.17708 63.7526 9.07906 62.8929 9.0453L62.7864 9.04094L62.8519 8.95817C63.1359 8.5944 63.4764 8.32756 63.8624 8.16528C64.8386 7.75358 65.8725 8.14131 66.9673 8.55301C67.9102 8.90698 68.5603 9.30234 69.2491 9.72165C70.3318 10.3795 71.5132 11.241 71.5475 11.3967L71.5531 11.4196L71.5398 11.4479C71.5231 11.4643 71.5087 11.4752 71.4865 11.4752ZM63.0061 8.93965C63.8347 8.97777 64.6644 9.07471 65.4742 9.22718C66.4637 9.41343 67.2091 9.64324 67.7527 9.81096C68.4216 10.0168 69.1781 10.251 70.131 10.6866C70.6047 10.9034 70.9552 11.0918 71.187 11.217C71.2214 11.2356 71.2558 11.2541 71.2869 11.2704C70.9552 10.9872 70.1288 10.3838 69.1892 9.81205C68.5048 9.396 67.8581 9.00282 66.9263 8.65212C65.807 8.23171 64.8397 7.86903 63.9046 8.2633C63.5663 8.40598 63.2634 8.63361 63.0061 8.93965Z" fill="black" stroke="black" stroke-width="0.4" stroke-miterlimit="10"/>
<path d="M48.8661 11.6048C48.9005 11.6527 49.4429 11.3053 50.5034 10.8489C51.6271 10.3653 52.5334 10.1018 53.311 9.87632C54.0098 9.67374 54.8573 9.43086 56.001 9.22828C56.8207 9.08343 57.8468 8.94946 59.0426 8.90372C58.8263 8.64451 58.4503 8.26875 57.8723 8.03895C56.7631 7.59893 55.626 7.9834 54.2461 8.47133C53.159 8.8558 52.4113 9.27838 51.5561 9.76741C50.0996 10.6006 48.8117 11.5296 48.8661 11.6048Z" fill="#F2F2F2" stroke="black" stroke-width="0.4" stroke-miterlimit="10"/>
<path d="M48.8727 11.6647C48.8483 11.6647 48.8339 11.6538 48.8206 11.6353L48.8062 11.6157L48.8106 11.583C48.8483 11.412 50.246 10.4546 51.5284 9.72056C52.3437 9.25441 53.1135 8.81331 54.2283 8.42013C55.5218 7.96379 56.7431 7.53249 57.8945 7.98884C58.3493 8.16963 58.7509 8.46588 59.087 8.86886L59.1569 8.95381L59.046 8.95817C58.0265 8.99629 57.006 9.1052 56.0121 9.28164C54.8484 9.48749 53.9688 9.74235 53.3276 9.92859C52.54 10.1573 51.6482 10.4154 50.5267 10.899C49.9698 11.1386 49.5572 11.3477 49.2832 11.4861C49.0314 11.6124 48.9271 11.6647 48.8727 11.6647ZM56.8274 7.89953C56.0287 7.89953 55.1912 8.19577 54.2661 8.52251C53.1612 8.91242 52.3958 9.35135 51.5849 9.81532C50.4224 10.4808 49.4085 11.1822 49.0524 11.4795C49.1057 11.4534 49.1678 11.4218 49.2333 11.3891C49.5072 11.2497 49.9221 11.0395 50.4834 10.7988C51.6116 10.3131 52.5067 10.0538 53.2977 9.82403C53.9422 9.6367 54.824 9.38184 55.9943 9.17491C56.9561 9.005 57.9433 8.89718 58.9306 8.8547C58.6222 8.50836 58.2606 8.25132 57.8557 8.09013C57.5152 7.95616 57.1746 7.89953 56.8274 7.89953Z" fill="black" stroke="black" stroke-width="0.4" stroke-miterlimit="10"/>
<path d="M43.6269 18.8791C43.5748 18.9205 43.1755 18.3498 42.3091 17.4828C41.3906 16.5625 40.5997 15.9635 39.9219 15.4483C39.3118 14.9855 38.5719 14.4267 37.5214 13.8125C36.7694 13.3724 35.8076 12.8747 34.6451 12.4162C34.9612 12.2016 35.4826 11.913 36.1437 11.8564C37.4138 11.7464 38.3845 12.5599 39.5548 13.5718C40.4766 14.3679 41.0479 15.0922 41.6979 15.9265C42.8061 17.3456 43.7101 18.8149 43.6269 18.8791Z" fill="#F2F2F2" stroke="black" stroke-width="0.4" stroke-miterlimit="10"/>
<path d="M43.6203 18.939C43.5648 18.939 43.4872 18.8497 43.2653 18.5959C43.0501 18.3498 42.7251 17.9762 42.2703 17.521C41.3551 16.6039 40.5753 16.0125 39.8887 15.4908C39.3285 15.0661 38.562 14.4834 37.4926 13.8582C36.5808 13.3245 35.6157 12.8562 34.624 12.4663L34.5286 12.4282L34.614 12.3704C35.1055 12.0383 35.6179 11.8466 36.1393 11.8008C37.4582 11.6865 38.4954 12.5817 39.5914 13.5293C40.5365 14.345 41.1222 15.0966 41.7423 15.8916C42.2381 16.5277 42.754 17.252 43.1566 17.8804C43.7689 18.8366 43.7046 18.8867 43.6625 18.9205C43.648 18.9325 43.6347 18.939 43.6203 18.939ZM34.7627 12.4042C35.7255 12.7887 36.6618 13.2461 37.5492 13.7656C38.6241 14.3941 39.3928 14.9778 39.9552 15.4048C40.6452 15.9287 41.4272 16.5222 42.3491 17.4447C42.8061 17.9033 43.1333 18.2768 43.3496 18.5252C43.4151 18.6003 43.4761 18.67 43.5249 18.7234C43.3263 18.315 42.5842 17.1507 41.6547 15.9591C41.0379 15.1684 40.4555 14.4213 39.5182 13.6121C38.3923 12.6395 37.4205 11.8008 36.1482 11.9108C35.6767 11.9511 35.2119 12.1178 34.7627 12.4042Z" fill="black" stroke="black" stroke-width="0.4" stroke-miterlimit="10"/>
<path d="M21.7763 16.1497C21.8107 16.1922 22.1979 15.7838 22.9854 15.2054C23.8207 14.5923 24.514 14.2241 25.1086 13.9072C25.6433 13.6229 26.2911 13.2809 27.1863 12.9433C27.8275 12.7015 28.6372 12.4467 29.5968 12.2582C29.3827 12.0273 29.021 11.7006 28.5197 11.5438C27.5557 11.2421 26.6949 11.7583 25.6522 12.4064C24.8313 12.9161 24.2911 13.4247 23.6732 14.0107C22.6227 15.0094 21.722 16.0822 21.7763 16.1497Z" fill="#F2F2F2" stroke="black" stroke-width="0.4" stroke-miterlimit="10"/>
<path d="M21.7852 16.2074H21.7785L21.7552 16.2053L21.7341 16.1846C21.6055 16.0256 23.0609 14.5193 23.6355 13.9725C24.2245 13.4127 24.7802 12.8845 25.6233 12.3606C26.6028 11.7518 27.529 11.1767 28.5374 11.4926C28.9345 11.6167 29.3061 11.8629 29.6389 12.2223L29.7054 12.2931L29.6089 12.3116C28.7925 12.4717 27.9838 12.7015 27.2073 12.9945C26.2977 13.3376 25.6266 13.6948 25.1363 13.9551C24.5351 14.2753 23.8529 14.638 23.0198 15.249C22.606 15.5529 22.3043 15.8088 22.1046 15.9787C21.8872 16.1617 21.8318 16.2074 21.7852 16.2074ZM27.945 11.51C27.1985 11.51 26.4841 11.9533 25.6821 12.4521C24.849 12.9694 24.2966 13.4944 23.712 14.0499C22.8823 14.8384 22.1801 15.6389 21.9283 15.9831C21.9604 15.9569 21.9948 15.9265 22.0314 15.896C22.2322 15.725 22.5362 15.4679 22.9532 15.1619C23.7919 14.5454 24.4785 14.1817 25.0831 13.8593C25.5756 13.5968 26.25 13.2385 27.1674 12.8932C27.9184 12.61 28.6993 12.3857 29.4891 12.2245C29.1863 11.9173 28.8557 11.706 28.503 11.596C28.3133 11.5372 28.128 11.51 27.945 11.51Z" fill="black" stroke="black" stroke-width="0.4" stroke-miterlimit="10"/>
<path d="M58.0032 25.4336C58.3216 25.4521 59.3909 25.5054 60.8685 25.4336C62.67 25.3453 64.3439 25.2637 66.3029 24.657C67.3046 24.3477 68.7522 23.7857 70.354 22.7173C70.2419 23.3816 70.0412 24.3314 69.6618 25.4336C69.1648 26.8799 68.4837 28.8643 66.6978 30.6723C65.9812 31.3977 64.6445 32.7166 62.4492 33.2917C61.6982 33.4888 60.1064 33.8842 58.2994 33.2917C56.6721 32.758 55.7469 31.7114 54.7419 30.5754C53.4474 29.1116 52.8096 27.6903 52.3703 26.6948C51.8622 25.5403 51.5627 24.5241 51.3819 23.7846C52.0275 24.1266 52.8917 24.5187 53.951 24.8302C55.4985 25.2844 56.7686 25.3628 58.0032 25.4336Z" fill="#F2F2F2" stroke="black" stroke-width="0.4" stroke-miterlimit="10"/>
<path d="M60.2939 33.6587C59.6849 33.6587 59.0016 33.5781 58.2828 33.3429C56.6421 32.8048 55.6993 31.7397 54.702 30.6113C53.3753 29.1105 52.7408 27.6696 52.3215 26.7166C51.9066 25.7755 51.5738 24.7931 51.3309 23.7977L51.3021 23.679L51.4108 23.7367C52.2272 24.168 53.088 24.5187 53.9699 24.7779C55.5395 25.2397 56.8507 25.3138 58.0077 25.3791C58.5024 25.4074 59.5307 25.4444 60.8674 25.3791C62.6511 25.292 64.3361 25.2092 66.2874 24.6058C67.6961 24.1702 69.0539 23.5199 70.324 22.6726L70.4316 22.6007L70.4106 22.726C70.2541 23.6474 70.0212 24.5644 69.7173 25.451C69.2181 26.9039 68.5348 28.8937 66.7399 30.7104C66.0844 31.3737 64.721 32.7536 62.4659 33.344C62.0377 33.455 61.2601 33.6587 60.2939 33.6587ZM51.4662 23.8892C51.7047 24.8389 52.0264 25.7745 52.4224 26.673C52.8395 27.6205 53.4696 29.0517 54.7852 30.5394C55.7725 31.6569 56.7054 32.7112 58.3183 33.2394C60.1464 33.8384 61.7504 33.418 62.4359 33.2383C64.6623 32.6556 66.0111 31.2898 66.659 30.6342C68.436 28.836 69.1149 26.8592 69.6108 25.4161C69.8992 24.5753 70.1244 23.7073 70.2785 22.8338C69.0306 23.6517 67.6995 24.2834 66.3206 24.7093C64.355 25.317 62.6633 25.3998 60.8729 25.488C59.5318 25.5534 58.498 25.5163 58.0021 25.488C56.8396 25.4227 55.5218 25.3475 53.9388 24.8825C53.088 24.632 52.2572 24.2987 51.4662 23.8892Z" fill="black" stroke="black" stroke-width="0.4" stroke-miterlimit="10"/>
<path d="M27.5711 27.858C28.1014 27.3777 28.646 27.1544 28.8557 27.0814C29.8141 26.7503 30.7759 27.1675 31.9184 27.663C32.2135 27.7915 33.4703 28.3514 34.9811 29.6028C35.8131 30.2922 36.4343 30.9522 36.858 31.4456C35.2951 30.4686 33.8963 29.9197 32.9057 29.6028C31.1131 29.0277 30.2123 29.0669 29.7442 29.1181C28.7015 29.2303 27.9705 29.5941 27.7686 29.6997C26.9854 30.1081 26.4741 30.6244 26.1879 30.9609C26.2211 30.424 26.3576 29.4274 26.9788 28.5354C27.2406 28.1608 27.5157 27.9092 27.5711 27.858Z" fill="#F2F2F2" stroke="black" stroke-width="0.4" stroke-miterlimit="10"/>
<path d="M37.1354 31.6852L36.8292 31.4935C35.578 30.7115 34.2524 30.0929 32.8891 29.6561C31.1719 29.105 30.2756 29.117 29.7509 29.1736C28.8169 29.2738 28.1247 29.5777 27.7952 29.7498C27.1951 30.0624 26.6693 30.4828 26.2311 30.9979L26.1224 31.1254L26.1324 30.9598C26.1735 30.3074 26.3443 29.3512 26.9322 28.5071C27.1774 28.1542 27.4347 27.9081 27.5334 27.8188C28.077 27.3265 28.6261 27.1043 28.8368 27.0313C29.8163 26.6937 30.8003 27.1206 31.9406 27.6151C32.5086 27.8612 33.6622 28.4417 35.0167 29.5636C35.6955 30.1256 36.3289 30.7475 36.9002 31.4129L37.1354 31.6852ZM30.2323 29.0386C30.7958 29.0386 31.6322 29.1377 32.9246 29.5527C34.1836 29.9567 35.4116 30.5144 36.5785 31.2114C36.0749 30.6527 35.5269 30.1266 34.9457 29.6452C33.5524 28.4908 32.3488 27.9092 31.8962 27.7131C30.7781 27.2274 29.8119 26.8091 28.8746 27.1326C28.7148 27.1881 28.1524 27.406 27.6089 27.8972C27.5124 27.9843 27.2628 28.2239 27.0243 28.567C26.4985 29.3229 26.3132 30.1724 26.2555 30.8008C26.6793 30.3325 27.1796 29.9458 27.742 29.6529C28.0781 29.4775 28.7858 29.1671 29.7376 29.0647C29.8762 29.0506 30.0382 29.0386 30.2323 29.0386Z" fill="black" stroke="black" stroke-width="0.4" stroke-miterlimit="10"/>
</g>
<defs>
<clipPath id="clip0_49_41">
<rect width="95" height="38" fill="white"/>
</clipPath>
</defs>
</svg>
