<svg width="40" height="34" viewBox="0 0 40 34" fill="none" xmlns="http://www.w3.org/2000/svg">
<g clip-path="url(#clip0_12_126)">
<path d="M30.9058 33.8461C30.64 33.8461 30.3787 33.7576 30.164 33.5896L16.649 22.9866C16.3847 22.7796 16.2195 22.4691 16.1925 22.1346C16.1669 21.7986 16.2826 21.4686 16.5138 21.2226L23.8119 13.4349L12.2521 19.9552C11.9007 20.1532 11.4727 20.1622 11.1138 19.9792L0.653175 14.6304C0.222196 14.4099 -0.03459 13.9524 0.00295177 13.4694C0.0404935 12.9865 0.364854 12.574 0.824366 12.4225L38.4217 0.0599652C38.8377 -0.0765294 39.2942 0.0239666 39.6155 0.320955C39.9354 0.619443 40.069 1.06792 39.9624 1.49091L32.0696 32.9372C31.9705 33.3316 31.6792 33.6496 31.2933 33.7801C31.1656 33.8236 31.035 33.8446 30.9043 33.8446L30.9058 33.8461ZM19.1628 21.9081L30.191 30.5598L37.1017 3.02085L4.30974 13.8039L11.6319 17.5493L29.4492 7.49817C29.9658 7.20718 30.6175 7.33617 30.9839 7.80116C31.3503 8.26764 31.3218 8.93061 30.9163 9.36259L19.1613 21.9066L19.1628 21.9081Z" fill="white"/>
<path d="M14.1472 32.6385C14.0031 32.6385 13.8589 32.613 13.7193 32.5606C13.3333 32.4136 13.0495 32.0776 12.9684 31.6726L10.4816 19.1451C10.3525 18.4956 10.776 17.8641 11.4262 17.7351C12.0764 17.6076 12.7086 18.0291 12.8378 18.6786L14.9521 29.3267L21.1796 24.6259C21.7081 24.2269 22.462 24.3304 22.8629 24.8599C23.2624 25.3878 23.1588 26.1408 22.6287 26.5413L14.8725 32.3956C14.6608 32.5561 14.4055 32.6385 14.1487 32.6385H14.1472Z" fill="white"/>
<path d="M14.1472 32.6388C14.0166 32.6388 13.886 32.6178 13.7553 32.5728C13.1276 32.3568 12.7942 31.6743 13.0105 31.0473L16.2541 21.6517C16.4703 21.0247 17.1536 20.6933 17.7813 20.9093C18.409 21.1252 18.7424 21.8077 18.5261 22.4347L15.2825 31.8303C15.1113 32.3268 14.6458 32.6388 14.1472 32.6388Z" fill="white"/>
</g>
<defs>
<clipPath id="clip0_12_126">
<rect width="40" height="33.8462" fill="white"/>
</clipPath>
</defs>
</svg>
