<svg width="40" height="32" viewBox="0 0 40 32" fill="none" xmlns="http://www.w3.org/2000/svg">
<rect width="40" height="32" fill="#F5F5F5"/>
<g id="Desktop - 1" clip-path="url(#clip0_0_1)">
<rect width="1440" height="4824" transform="translate(-1235 -4650)" fill="white"/>
<rect id="Rectangle 5" x="-1235" y="-128" width="1440" height="302" fill="#826AED"/>
<g id="Frame 1">
<g id="_&#208;&#160;&#208;&#142;&#208;&#160;&#194;&#187;&#208;&#160;&#209;&#149;&#208;&#160;&#226;&#132;&#150;_1" clip-path="url(#clip1_0_1)">
<path id="Vector" d="M20.0159 31.3846C15.8216 31.3846 11.5907 31.1985 7.41871 30.8294C6.44884 30.8197 4.12592 30.572 2.18936 28.6003C0.777486 27.1629 0 25.2511 0 23.2179V8.48557C0 6.4524 0.777486 4.54064 2.18936 3.10317C3.93831 1.32253 6.13562 1.03601 7.31537 0.882227C14.0043 0.0129501 19.6486 0 19.8855 0H19.8903C20.1749 0 25.3645 0.0129501 32.6703 0.880608C33.672 1.0004 36.0188 1.27882 37.8106 3.10155C39.2225 4.53902 40 6.45078 40 8.48395V23.2163C40 27.3944 36.677 30.797 32.5813 30.8294C28.8751 31.1564 25.1101 31.3409 21.388 31.3765C20.9317 31.3814 20.4738 31.383 20.0159 31.383V31.3846ZM19.8871 2.59002C19.8315 2.59002 14.1585 2.60459 7.63813 3.45121C6.63646 3.58071 5.12282 3.7782 3.98919 4.93238C3.05748 5.88097 2.54392 7.14199 2.54392 8.48395V23.2163C2.54392 24.5583 3.05748 25.8193 3.98919 26.7679C5.32952 28.1325 6.99738 28.2394 7.47754 28.2394L7.58725 28.2442C12.1504 28.6489 16.7851 28.8318 21.3626 28.7865C25.037 28.7509 28.7543 28.568 32.4128 28.2442L32.5225 28.2394C35.2429 28.2394 37.4561 25.986 37.4561 23.2163V8.48557C37.4561 7.14361 36.9425 5.88259 36.0108 4.934C34.8454 3.74744 33.1775 3.54995 32.3746 3.45444C25.1864 2.59974 19.9539 2.59164 19.8871 2.59164V2.59002Z" fill="white"/>
<path id="Vector_2" d="M15.9997 23.1856C15.5561 23.1856 15.1141 23.0675 14.7102 22.8295C13.9025 22.3552 13.4208 21.5037 13.4208 20.5551V11.1501C13.4208 10.1999 13.9025 9.35004 14.7102 8.87574C15.5179 8.40144 16.483 8.40144 17.2907 8.87574L25.2914 13.5783C26.0991 14.0526 26.5808 14.904 26.5808 15.8526C26.5808 16.8012 26.0991 17.6527 25.2914 18.127L17.2907 22.8295C16.8869 23.0675 16.4433 23.1856 16.0013 23.1856H15.9997ZM15.9997 11.1096C15.9997 11.1096 15.9885 11.1113 15.9806 11.1161C15.9631 11.1274 15.9631 11.1323 15.9631 11.1485V20.5535C15.9631 20.5697 15.9631 20.5746 15.9806 20.5859C15.9981 20.5956 16.0029 20.594 16.0172 20.5859L24.0178 15.8834C24.0305 15.8753 24.0353 15.872 24.0353 15.851C24.0353 15.83 24.0305 15.8267 24.0178 15.8186L16.0172 11.1161C16.0172 11.1161 16.006 11.1096 15.9997 11.1096Z" fill="white"/>
</g>
</g>
</g>
<defs>
<clipPath id="clip0_0_1">
<rect width="1440" height="4824" fill="white" transform="translate(-1235 -4650)"/>
</clipPath>
<clipPath id="clip1_0_1">
<rect width="40" height="31.3846" fill="white"/>
</clipPath>
</defs>
</svg>
