<svg width="244" height="33" viewBox="0 0 244 33" fill="none" xmlns="http://www.w3.org/2000/svg">
<path d="M19.5 23.9375C19.5208 24 19.5625 24.0104 19.625 23.9688C19.9167 23.9271 20.1771 23.8958 20.4062 23.875C21.4896 23.7708 22 24.0729 21.9375 24.7812C21.7917 25.9896 21.6875 27.1458 21.625 28.25C21.6042 28.8125 21.1562 29.3958 20.2812 30C19.5104 30.375 19.0208 30.5625 18.8125 30.5625C18.6875 30.5417 18.6354 30.4479 18.6562 30.2812C18.7604 28.9896 18.8438 28.125 18.9062 27.6875C18.9688 27.375 18.875 27.2604 18.625 27.3438L18.0312 27.4688C16.4271 27.8854 14.0833 28.2708 11 28.625C7.91667 28.9583 5.41667 29.1771 3.5 29.2812C3.33333 29.2812 3.27083 29.3854 3.3125 29.5938C3.375 29.8229 3.4375 30.7083 3.5 32.25C3.52083 32.3958 3.46875 32.5 3.34375 32.5625C3.13542 32.625 2.75 32.5625 2.1875 32.375C1.10417 32.0208 0.552083 31.5625 0.53125 31C0.447917 29.7917 0.364583 28.5833 0.28125 27.375C0.21875 26.6875 0.677083 26.3021 1.65625 26.2188C1.84375 26.1979 2.15625 26.1562 2.59375 26.0938C3.03125 24.0938 3.83333 21.9583 5 19.6875C6.16667 17.4167 7.10417 15.7083 7.8125 14.5625C8.85417 12.8542 9.5 11.7917 9.75 11.375C10.5208 9.91667 10.9583 8.77083 11.0625 7.9375L11.1875 6.90625C11.3542 6.61458 11.7812 6.21875 12.4688 5.71875C12.8438 5.44792 13.1146 5.30208 13.2812 5.28125C13.4271 5.28125 13.6458 5.6875 13.9375 6.5C14.0833 6.97917 14.2292 7.45833 14.375 7.9375C14.9375 9.45833 15.2396 10.2292 15.2812 10.25C16.1979 12.6458 16.8958 14.6146 17.375 16.1562C17.9583 17.8229 18.4167 19.3229 18.75 20.6562C19.1042 21.9688 19.3333 22.9583 19.4375 23.625C19.4583 23.75 19.4792 23.8542 19.5 23.9375ZM5.15625 25.8125C5.67708 25.75 6.20833 25.7083 6.75 25.6875C7.3125 25.6458 8.4375 25.5208 10.125 25.3125C11.7083 25.1458 13.7917 24.8958 16.375 24.5625C16.4792 24.5417 16.5833 24.5208 16.6875 24.5C16.5625 23.7083 16.4062 23.0104 16.2188 22.4062C15.9688 21.2812 15.7396 20.3333 15.5312 19.5625C15.3229 18.7917 14.8958 17.1979 14.25 14.7812C14.0833 14.3021 13.8229 13.5938 13.4688 12.6562C13.0312 11.5729 12.6562 11.0312 12.3438 11.0312C12.1979 11.0312 12.0521 11.1354 11.9062 11.3438C11.0521 12.9271 10.2083 14.4896 9.375 16.0312C7.5625 19.5521 6.36458 22.1458 5.78125 23.8125C5.48958 24.7083 5.28125 25.375 5.15625 25.8125ZM43 5.5C43 5.91667 42.8958 6.47917 42.6875 7.1875C42.4792 7.97917 42.3542 8.54167 42.3125 8.875C42.1042 10.9792 41.9479 12.6979 41.8438 14.0312L41.4062 19.2812C41.3229 20.1771 41.2604 21.3229 41.2188 22.7188C41.1771 23.9062 41.1875 25.0417 41.25 26.125C41.2917 26.6875 40.8854 27.3125 40.0312 28C39.5312 28.4167 39.1771 28.625 38.9688 28.625C38.8438 28.625 38.7812 28.5417 38.7812 28.375C38.7396 27.4167 38.7604 26.3021 38.8438 25.0312C38.9271 23.3021 38.7292 22.4375 38.25 22.4375C38.1667 22.4375 38.0729 22.4583 37.9688 22.5C36.7812 23.3125 35.5104 24.0417 34.1562 24.6875C31.5312 26.0625 29.2083 27.2917 27.1875 28.375L25.4375 29.3125C25.4167 29.3125 25.4062 29.3229 25.4062 29.3438H25.375C25.2708 29.3854 25.1771 29.4062 25.0938 29.4062C24.7604 29.4062 24.6354 28.9792 24.7188 28.125L25 25.2188H25.0312C25.4062 20.8229 26.1458 16.25 27.25 11.5L27.5312 10.2812C27.6354 9.82292 27.8021 9.11458 28.0312 8.15625C28.3438 6.96875 28.75 6.375 29.25 6.375C29.4792 6.375 29.6667 6.51042 29.8125 6.78125C29.9583 7.03125 30.0312 7.28125 30.0312 7.53125C30.0312 8.61458 29.8854 9.30208 29.5938 9.59375C29.4062 10.0312 29.1458 10.7292 28.8125 11.6875C27.9792 15.5208 27.4896 19.0625 27.3438 22.3125C27.3021 23.5 27.4688 24.1771 27.8438 24.3438C28.2604 24.5312 28.7604 24.4688 29.3438 24.1562C32.8229 22.2812 35.2188 20.9583 36.5312 20.1875C37.8438 19.4167 38.6458 18.8542 38.9375 18.5C39.25 18.1458 39.4583 17.4375 39.5625 16.375C39.7917 14.4583 39.9896 12.125 40.1562 9.375C40.1771 9.02083 40.1875 8.28125 40.1875 7.15625C40.2708 6.53125 40.5312 6.02083 40.9688 5.625C41.4062 5.20833 41.9479 5 42.5938 5C42.7604 5 42.8854 5.0625 42.9688 5.1875C42.9896 5.27083 43 5.375 43 5.5ZM59.9062 5.78125C59.9062 6.05208 59.7917 6.38542 59.5625 6.78125C59.1667 7.46875 58.8021 7.88542 58.4688 8.03125C58.0104 8.11458 57.3333 8.23958 56.4375 8.40625C55.4375 8.61458 54.7708 8.90625 54.4375 9.28125C54.125 9.63542 53.9271 10.3333 53.8438 11.375L53.0625 20C53 20.7917 52.9375 21.9375 52.875 23.4375C52.8333 24.625 52.8438 25.75 52.9062 26.8125C52.9479 27.375 52.5417 28 51.6875 28.6875C51.1875 29.1042 50.8333 29.3125 50.625 29.3125C50.4792 29.3125 50.4062 29.2188 50.4062 29.0312C50.3854 26.8438 50.5521 23.9792 50.9062 20.4375C51.3229 16.1667 51.5625 13.3125 51.625 11.875C51.6667 10.625 51.4688 10 51.0312 10C50.5729 10.0417 50.0833 10.1667 49.5625 10.375C48.6667 10.7292 47.5938 11.0417 46.3438 11.3125C46.1354 11.3542 45.9896 11.375 45.9062 11.375C45.3229 11.375 45.0312 11.0312 45.0312 10.3438C45.0312 9.98958 45.1979 9.20833 45.5312 8C45.6562 7.58333 45.8333 7.33333 46.0625 7.25C49.8542 7.10417 53.75 6.55208 57.75 5.59375C57.8542 5.57292 58.0833 5.48958 58.4375 5.34375C58.7917 5.17708 59 5.09375 59.0625 5.09375C59.25 5.09375 59.4688 5.17708 59.7188 5.34375C59.8438 5.44792 59.9062 5.59375 59.9062 5.78125ZM59.5625 14.3438C59.625 13.4062 60.1562 12.4583 61.1562 11.5C62.1562 10.5208 63.3125 9.64583 64.625 8.875C65.9375 8.10417 67.5833 7.4375 69.5625 6.875C73.0208 6 75.9688 5.67708 78.4062 5.90625C79.4271 6.09375 79.8542 6.76042 79.6875 7.90625C79.5 9.05208 79.0729 9.66667 78.4062 9.75C77.9688 9.8125 77.6875 9.96875 77.5625 10.2188C77.4583 10.4479 77.3958 10.8854 77.375 11.5312C76.7083 18.0938 76.4583 22.9583 76.625 26.125C76.5833 26.75 76.4792 27.125 76.3125 27.25C76.1667 27.3542 75.7396 27.5104 75.0312 27.7188C74.3438 27.9271 73.9479 27.9583 73.8438 27.8125C73.7604 27.6458 73.7708 27.2083 73.875 26.5C74.0208 25.4375 74.125 24.2083 74.1875 22.8125C74.4167 21.125 74.3854 20.3021 74.0938 20.3438C71.7812 20.2188 70.4062 20.2917 69.9688 20.5625L65.7812 25.2812C63.9688 27.4479 62.9375 28.5521 62.6875 28.5938C62.4167 28.6354 62.0417 28.6458 61.5625 28.625C60.75 28.5625 60.3542 28.3125 60.375 27.875C60.5 27.3542 60.875 26.7917 61.5 26.1875C62.125 25.5833 63.5521 23.8125 65.7812 20.875C66.1771 20.4375 66.3125 20.1771 66.1875 20.0938C66.0833 19.9896 65.6979 19.8958 65.0312 19.8125C64.3854 19.7292 63.6562 19.5208 62.8438 19.1875C62.0312 18.8542 61.3854 18.4896 60.9062 18.0938C60.4271 17.6771 60.0312 17.1771 59.7188 16.5938C59.5521 16.0938 59.5 15.3438 59.5625 14.3438ZM62.5625 15.9688C62.8958 16.3021 63.6458 16.6354 64.8125 16.9688C67.9583 17.3646 70.6458 17.3958 72.875 17.0625C73.9583 16.75 74.5833 16.3854 74.75 15.9688C74.8542 15.5521 75.0104 14.375 75.2188 12.4375C75.2396 11.8958 75.2604 11.3542 75.2812 10.8125C75.3438 9.95833 75.1562 9.47917 74.7188 9.375C73.7812 9.39583 72.8958 9.47917 72.0625 9.625C71.2292 9.77083 70.1667 10.0521 68.875 10.4688C67.6042 10.8854 66.4062 11.3854 65.2812 11.9688C64.1562 12.5312 63.2604 13.3125 62.5938 14.3125C62.2604 15.0833 62.25 15.6354 62.5625 15.9688ZM95.9062 16.9375C95.7812 18.2083 95.6979 19.0625 95.6562 19.5L95.5938 20.0938C95.4479 21.4896 95.3854 22.5 95.4062 23.125C95.3646 24.125 95.3854 25.2604 95.4688 26.5312C95.5104 27.0938 95.1042 27.7188 94.25 28.4062C93.75 28.8229 93.3854 29.0312 93.1562 29.0312C93.0312 29.0312 92.9688 28.9479 92.9688 28.7812C92.9479 25.5312 93.0208 23.0521 93.1875 21.3438C93.25 20.6562 93.25 20.2083 93.1875 20C93.0625 19.6042 92.75 19.4583 92.25 19.5625C91.1042 19.9167 90.1042 20.125 89.25 20.1875C88.4167 20.2292 87.4271 20.1458 86.2812 19.9375C85.1562 19.7083 84.1979 19.1771 83.4062 18.3438C82.6146 17.5104 82.2188 16.1875 82.2188 14.375C82.3438 13 82.4375 11.4688 82.5 9.78125C82.5 9.69792 82.5208 8.95833 82.5625 7.5625C82.6458 6.9375 82.9167 6.42708 83.375 6.03125C83.8333 5.61458 84.375 5.40625 85 5.40625C85.2708 5.40625 85.4062 5.57292 85.4062 5.90625C85.4062 6.26042 85.3021 6.8125 85.0938 7.5625C84.8854 8.39583 84.7604 8.96875 84.7188 9.28125C84.5312 11.1354 84.3958 12.4479 84.3125 13.2188C84.2708 13.8229 84.2708 14.3333 84.3125 14.75C84.6875 15.8542 85.4062 16.5208 86.4688 16.75C88.4271 17.3958 90.5208 17.2917 92.75 16.4375C93.2083 16.25 93.5312 16.0104 93.7188 15.7188C93.9062 15.4062 94.0208 14.8229 94.0625 13.9688C94.1875 12.2188 94.3438 9.90625 94.5312 7.03125C94.5729 6.38542 95.2188 5.86458 96.4688 5.46875C96.5938 5.42708 96.7188 5.40625 96.8438 5.40625C97.1146 5.40625 97.25 5.57292 97.25 5.90625C97.25 6.30208 97.1458 6.86458 96.9375 7.59375C96.7083 8.38542 96.5729 8.95833 96.5312 9.3125C96.5104 9.64583 96.4688 10.1771 96.4062 10.9062L96.1562 13.4688C96.1146 13.8021 96.0938 14.0833 96.0938 14.3125C96.0938 14.7708 96.0312 15.6458 95.9062 16.9375ZM118.062 5.5C118.062 5.91667 117.958 6.47917 117.75 7.1875C117.542 7.97917 117.417 8.54167 117.375 8.875C117.167 10.9792 117.01 12.6979 116.906 14.0312L116.469 19.2812C116.385 20.1771 116.323 21.3229 116.281 22.7188C116.24 23.9062 116.25 25.0417 116.312 26.125C116.354 26.6875 115.948 27.3125 115.094 28C114.594 28.4167 114.24 28.625 114.031 28.625C113.906 28.625 113.844 28.5417 113.844 28.375C113.802 27.4167 113.823 26.3021 113.906 25.0312C113.99 23.3021 113.792 22.4375 113.312 22.4375C113.229 22.4375 113.135 22.4583 113.031 22.5C111.844 23.3125 110.573 24.0417 109.219 24.6875C106.594 26.0625 104.271 27.2917 102.25 28.375L100.5 29.3125C100.479 29.3125 100.469 29.3229 100.469 29.3438H100.438C100.333 29.3854 100.24 29.4062 100.156 29.4062C99.8229 29.4062 99.6979 28.9792 99.7812 28.125L100.062 25.2188H100.094C100.469 20.8229 101.208 16.25 102.312 11.5L102.594 10.2812C102.698 9.82292 102.865 9.11458 103.094 8.15625C103.406 6.96875 103.812 6.375 104.312 6.375C104.542 6.375 104.729 6.51042 104.875 6.78125C105.021 7.03125 105.094 7.28125 105.094 7.53125C105.094 8.61458 104.948 9.30208 104.656 9.59375C104.469 10.0312 104.208 10.7292 103.875 11.6875C103.042 15.5208 102.552 19.0625 102.406 22.3125C102.365 23.5 102.531 24.1771 102.906 24.3438C103.323 24.5312 103.823 24.4688 104.406 24.1562C107.885 22.2812 110.281 20.9583 111.594 20.1875C112.906 19.4167 113.708 18.8542 114 18.5C114.312 18.1458 114.521 17.4375 114.625 16.375C114.854 14.4583 115.052 12.125 115.219 9.375C115.24 9.02083 115.25 8.28125 115.25 7.15625C115.333 6.53125 115.594 6.02083 116.031 5.625C116.469 5.20833 117.01 5 117.656 5C117.823 5 117.948 5.0625 118.031 5.1875C118.052 5.27083 118.062 5.375 118.062 5.5ZM138.844 5.5C138.844 5.91667 138.74 6.47917 138.531 7.1875C138.323 7.97917 138.198 8.54167 138.156 8.875C137.948 10.9792 137.792 12.6979 137.688 14.0312L137.25 19.2812C137.167 20.1771 137.104 21.3229 137.062 22.7188C137.021 23.9062 137.031 25.0417 137.094 26.125C137.135 26.6875 136.729 27.3125 135.875 28C135.375 28.4167 135.021 28.625 134.812 28.625C134.688 28.625 134.625 28.5417 134.625 28.375C134.583 27.4167 134.604 26.3021 134.688 25.0312C134.771 23.3021 134.573 22.4375 134.094 22.4375C134.01 22.4375 133.917 22.4583 133.812 22.5C132.625 23.3125 131.354 24.0417 130 24.6875C127.375 26.0625 125.052 27.2917 123.031 28.375L121.281 29.3125C121.26 29.3125 121.25 29.3229 121.25 29.3438H121.219C121.115 29.3854 121.021 29.4062 120.938 29.4062C120.604 29.4062 120.479 28.9792 120.562 28.125L120.844 25.2188H120.875C121.25 20.8229 121.99 16.25 123.094 11.5L123.375 10.2812C123.479 9.82292 123.646 9.11458 123.875 8.15625C124.188 6.96875 124.594 6.375 125.094 6.375C125.323 6.375 125.51 6.51042 125.656 6.78125C125.802 7.03125 125.875 7.28125 125.875 7.53125C125.875 8.61458 125.729 9.30208 125.438 9.59375C125.25 10.0312 124.99 10.7292 124.656 11.6875C123.823 15.5208 123.333 19.0625 123.188 22.3125C123.146 23.5 123.312 24.1771 123.688 24.3438C124.104 24.5312 124.604 24.4688 125.188 24.1562C128.667 22.2812 131.062 20.9583 132.375 20.1875C133.688 19.4167 134.49 18.8542 134.781 18.5C135.094 18.1458 135.302 17.4375 135.406 16.375C135.635 14.4583 135.833 12.125 136 9.375C136.021 9.02083 136.031 8.28125 136.031 7.15625C136.115 6.53125 136.375 6.02083 136.812 5.625C137.25 5.20833 137.792 5 138.438 5C138.604 5 138.729 5.0625 138.812 5.1875C138.833 5.27083 138.844 5.375 138.844 5.5ZM132.406 2.3125C133.24 1.91667 134.312 1.44792 135.625 0.90625C136.042 0.739583 136.417 0.6875 136.75 0.75C137.083 1 137.323 1.1875 137.469 1.3125C137.531 1.35417 137.562 1.39583 137.562 1.4375C137.562 1.60417 137.281 1.85417 136.719 2.1875L134.719 3.28125C132.385 4.84375 130.583 5.13542 129.312 4.15625C128.792 3.84375 128.323 3.51042 127.906 3.15625C127.177 2.71875 126.844 2.21875 126.906 1.65625C126.948 1.59375 127.073 1.51042 127.281 1.40625C127.552 1.42708 127.812 1.48958 128.062 1.59375L130.156 2.375C130.823 2.70833 131.573 2.6875 132.406 2.3125ZM166.656 5.78125C166.656 6.05208 166.542 6.38542 166.312 6.78125C165.917 7.46875 165.552 7.88542 165.219 8.03125C164.76 8.11458 164.083 8.23958 163.188 8.40625C162.188 8.61458 161.521 8.90625 161.188 9.28125C160.875 9.63542 160.677 10.3333 160.594 11.375L159.812 20C159.75 20.7917 159.688 21.9375 159.625 23.4375C159.583 24.625 159.594 25.75 159.656 26.8125C159.698 27.375 159.292 28 158.438 28.6875C157.938 29.1042 157.583 29.3125 157.375 29.3125C157.229 29.3125 157.156 29.2188 157.156 29.0312C157.135 26.8438 157.302 23.9792 157.656 20.4375C158.073 16.1667 158.312 13.3125 158.375 11.875C158.417 10.625 158.219 10 157.781 10C157.323 10.0417 156.833 10.1667 156.312 10.375C155.417 10.7292 154.344 11.0417 153.094 11.3125C152.885 11.3542 152.74 11.375 152.656 11.375C152.073 11.375 151.781 11.0312 151.781 10.3438C151.781 9.98958 151.948 9.20833 152.281 8C152.406 7.58333 152.583 7.33333 152.812 7.25C156.604 7.10417 160.5 6.55208 164.5 5.59375C164.604 5.57292 164.833 5.48958 165.188 5.34375C165.542 5.17708 165.75 5.09375 165.812 5.09375C166 5.09375 166.219 5.17708 166.469 5.34375C166.594 5.44792 166.656 5.59375 166.656 5.78125ZM186.156 12.3438C186.156 12.6146 186.042 12.9479 185.812 13.3438C185.396 14.0521 185.042 14.4792 184.75 14.625C179.125 15.7708 174.854 16.9792 171.938 18.25C170.979 18.6667 170.438 19.4167 170.312 20.5C170.229 21.1875 170.146 22.0729 170.062 23.1562C170.021 23.7396 170.354 24.125 171.062 24.3125C171.5 24.4375 172.083 24.4792 172.812 24.4375C173.938 24.375 175.177 24.1875 176.531 23.875C179.927 23.0625 182.906 22.1667 185.469 21.1875C185.615 21.2917 185.688 21.4479 185.688 21.6562C185.688 21.9271 185.552 22.3021 185.281 22.7812C184.823 23.5729 184.438 24.0625 184.125 24.25C182.458 25.25 180.052 26.2292 176.906 27.1875C172.573 28.5 170.083 29.2812 169.438 29.5312C169.271 29.5938 169.135 29.625 169.031 29.625C168.531 29.625 168.167 29.1875 167.938 28.3125C167.646 27.25 167.521 26.6354 167.562 26.4688C167.938 24.6771 168.25 22.2917 168.5 19.3125L169.125 12.125C168.875 11.9375 168.719 11.4583 168.656 10.6875C168.635 10.4375 168.625 10.1875 168.625 9.9375C168.625 9.5625 168.75 8.91667 169 8C169.125 7.5625 169.302 7.3125 169.531 7.25C173.24 7.10417 177.135 6.54167 181.219 5.5625C181.365 5.52083 181.854 5.35417 182.688 5.0625C183.292 4.85417 183.781 4.75 184.156 4.75C184.427 4.75 184.667 4.8125 184.875 4.9375C185 5.04167 185.062 5.1875 185.062 5.375C185.062 5.625 184.938 5.95833 184.688 6.375C184.25 7.08333 183.885 7.51042 183.594 7.65625C181.156 8.15625 179.385 8.54167 178.281 8.8125C176.156 9.33333 174.417 9.85417 173.062 10.375C172.146 10.7292 171.583 11.2188 171.375 11.8438C171.292 12.0938 171.229 12.4062 171.188 12.7812C171.125 13.3229 171.198 13.6875 171.406 13.875C171.615 14.0625 171.99 14.125 172.531 14.0625C174.365 13.8542 176.01 13.6458 177.469 13.4375C179.406 13.1667 181.042 12.8646 182.375 12.5312C182.896 12.4062 183.51 12.2083 184.219 11.9375C184.615 11.7917 184.969 11.7188 185.281 11.7188C185.552 11.7188 185.781 11.7812 185.969 11.9062C186.094 12.0104 186.156 12.1562 186.156 12.3438ZM206.812 26.2812C206.771 26.6146 206.604 27.0833 206.312 27.6875C205.979 28.4167 205.688 28.7604 205.438 28.7188C205.021 28.6771 204.677 27.6771 204.406 25.7188C204.156 23.9688 203.833 22.8646 203.438 22.4062C203.208 22.1146 202.802 22.0104 202.219 22.0938C198.302 22.6146 194.479 23.6458 190.75 25.1875C189.979 25.5208 189.521 25.8229 189.375 26.0938C189.312 26.1979 189.281 26.5 189.281 27C189.281 27.5 189.208 27.8958 189.062 28.1875C188.792 28.7083 188.417 29.0417 187.938 29.1875C187.458 29.3125 187.104 29.0104 186.875 28.2812C186.917 26.4479 188.031 23.9271 190.219 20.7188C190.24 20.6979 190.625 20.125 191.375 19C192.812 16.8542 193.792 15.375 194.312 14.5625C195.375 12.8542 196.031 11.7917 196.281 11.375C197.094 9.91667 197.552 8.77083 197.656 7.9375L197.781 6.90625C197.948 6.61458 198.385 6.21875 199.094 5.71875C199.469 5.44792 199.75 5.30208 199.938 5.28125C200.083 5.28125 200.302 5.6875 200.594 6.5C200.76 6.97917 200.917 7.45833 201.062 7.9375C201.625 9.45833 201.938 10.2292 202 10.25C202.938 12.6458 203.719 14.6146 204.344 16.1562L205.062 18C205.25 18.5208 205.552 19.3438 205.969 20.4688C206.427 21.6979 206.708 22.6458 206.812 23.3125C206.958 24.1458 206.958 25.1354 206.812 26.2812ZM202.156 18.6562C202.26 18.3854 201.854 17.0938 200.938 14.7812C200.75 14.3021 200.479 13.5938 200.125 12.6562C199.667 11.5729 199.281 11.0312 198.969 11.0312C198.823 11.0312 198.667 11.1354 198.5 11.3438C197.625 12.9271 196.708 14.4896 195.75 16.0312C195.188 16.8854 194.406 18.1875 193.406 19.9375C193.344 20.1042 193.448 20.2083 193.719 20.25C194.344 20.3542 196.854 20 201.25 19.1875C201.771 19.0833 202.073 18.9062 202.156 18.6562ZM224.25 5.78125C224.25 6.05208 224.135 6.38542 223.906 6.78125C223.51 7.46875 223.146 7.88542 222.812 8.03125C222.354 8.11458 221.677 8.23958 220.781 8.40625C219.781 8.61458 219.115 8.90625 218.781 9.28125C218.469 9.63542 218.271 10.3333 218.188 11.375L217.406 20C217.344 20.7917 217.281 21.9375 217.219 23.4375C217.177 24.625 217.188 25.75 217.25 26.8125C217.292 27.375 216.885 28 216.031 28.6875C215.531 29.1042 215.177 29.3125 214.969 29.3125C214.823 29.3125 214.75 29.2188 214.75 29.0312C214.729 26.8438 214.896 23.9792 215.25 20.4375C215.667 16.1667 215.906 13.3125 215.969 11.875C216.01 10.625 215.812 10 215.375 10C214.917 10.0417 214.427 10.1667 213.906 10.375C213.01 10.7292 211.938 11.0417 210.688 11.3125C210.479 11.3542 210.333 11.375 210.25 11.375C209.667 11.375 209.375 11.0312 209.375 10.3438C209.375 9.98958 209.542 9.20833 209.875 8C210 7.58333 210.177 7.33333 210.406 7.25C214.198 7.10417 218.094 6.55208 222.094 5.59375C222.198 5.57292 222.427 5.48958 222.781 5.34375C223.135 5.17708 223.344 5.09375 223.406 5.09375C223.594 5.09375 223.812 5.17708 224.062 5.34375C224.188 5.44792 224.25 5.59375 224.25 5.78125ZM244 8.59375C244 9.36458 243.719 10.25 243.156 11.25C242.656 12.0833 242.083 12.8125 241.438 13.4375C239.354 15.4167 235.75 17.0104 230.625 18.2188C229.438 18.5104 228.729 18.7396 228.5 18.9062C228 19.3021 227.75 20.3333 227.75 22C227.75 22.4375 227.802 23.0938 227.906 23.9688C228.031 24.8438 228.094 25.5 228.094 25.9375C228.094 26.5833 228 27.0312 227.812 27.2812C227.688 27.4479 227.312 27.6875 226.688 28C226.083 28.3125 225.688 28.4688 225.5 28.4688C225.375 28.4688 225.323 28.4167 225.344 28.3125C225.469 23.9375 225.854 18.6771 226.5 12.5312C226.542 12.0729 226.521 11.7396 226.438 11.5312C226.375 11.3021 226.125 11.1875 225.688 11.1875C225.021 11.1875 224.688 10.5417 224.688 9.25C224.688 8.125 225.208 7.39583 226.25 7.0625C227.875 6.54167 230.448 6.20833 233.969 6.0625C235.698 6 237.323 5.98958 238.844 6.03125C240.26 6.07292 241.333 6.20833 242.062 6.4375C243.354 6.83333 244 7.55208 244 8.59375ZM241.094 10.3438C241.094 10.2604 241.042 10.1875 240.938 10.125C240.583 9.89583 240.302 9.75 240.094 9.6875C239.156 9.5625 238.104 9.48958 236.938 9.46875C235.625 9.44792 234.417 9.46875 233.312 9.53125C232.917 9.55208 232.24 9.60417 231.281 9.6875C230.948 9.72917 230.365 9.82292 229.531 9.96875C229.094 10.1354 228.833 10.6458 228.75 11.5C228.542 13.3958 228.458 14.4792 228.5 14.75C228.562 15.1458 229.156 15.2188 230.281 14.9688C234.51 14.0729 237.802 12.8542 240.156 11.3125C240.781 10.8958 241.094 10.5729 241.094 10.3438Z" fill="white"/>
</svg>
