<svg width="556" height="74" viewBox="0 0 556 74" fill="none" xmlns="http://www.w3.org/2000/svg">
<path d="M42.25 35.5312C42.25 36.0938 42.0938 36.5312 41.7812 36.8438C41.5312 37.0938 41.1875 37.2188 40.75 37.2188C39.9375 37.2188 38.75 36.8125 37.1875 36C34.875 34.8125 33.5625 33.7812 33.25 32.9062L28.375 20.0625C26.5 15.25 24.4688 11.0625 22.2812 7.5C21.7188 6.5 22.0312 5.09375 23.2188 3.28125C24.1562 1.84375 25.1875 1.125 26.3125 1.125C26.625 1.125 26.9375 1.15625 27.25 1.21875C28.25 1.53125 29.2812 1.875 30.3438 2.25C31.8438 2.8125 32.6562 3.3125 32.7812 3.75C33.2188 5.0625 34.2812 9.25 35.9688 16.3125C37.2188 21.5625 38.4062 25.6875 39.5312 28.6875C39.5938 28.875 40.1562 30 41.2188 32.0625C41.9062 33.5 42.25 34.6562 42.25 35.5312ZM21.5312 35.3438C21.5312 35.9062 21.375 36.3438 21.0625 36.6562C20.75 36.9062 20.375 37.0312 19.9375 37.0312C19.0625 37.0312 17.875 36.625 16.375 35.8125C14.125 34.625 12.8438 33.625 12.5312 32.8125C10.8438 28.5 9.1875 24.1875 7.5625 19.875C5.5 14.9375 3.46875 10.7812 1.46875 7.40625C0.90625 6.46875 1.21875 5.0625 2.40625 3.1875C3.40625 1.6875 4.46875 0.9375 5.59375 0.9375C5.78125 0.9375 6.0625 1 6.4375 1.125C7.125 1.375 8.1875 1.75 9.625 2.25C11.0625 2.6875 11.8438 3.15625 11.9688 3.65625C12.9688 6.96875 14.0625 11.125 15.25 16.125C16.5625 21.5625 17.75 25.6875 18.8125 28.5C19.375 29.625 19.9062 30.7812 20.4062 31.9688C21.1562 33.5938 21.5312 34.7188 21.5312 35.3438ZM107.688 8.53125C107.375 11.5312 106.562 14.5937 105.25 17.7188C102.875 23.4688 101.188 26.5625 100.188 27C99.75 27.1875 99.4062 27.1875 99.1562 27C98.9062 26.75 98.8125 26.25 98.875 25.5C98.9375 23.9375 99 23.0312 99.0625 22.7812C99.1875 22.1562 99.5625 20.9688 100.188 19.2188C100.812 17.7188 101.125 16.625 101.125 15.9375C101.125 12.8125 98.375 11.4062 92.875 11.7188C84.6875 12.1562 77.5312 15.2188 71.4062 20.9062C65.2812 26.5312 61.5625 33.4375 60.25 41.625C60.0625 42.8125 59.9688 44.125 59.9688 45.5625C59.9688 50.75 61.6562 55.125 65.0312 58.6875C67.5312 61.375 71.2188 62.7188 76.0938 62.7188C79.0312 62.7188 82.5625 62.2188 86.6875 61.2188C91.0625 60.0938 94.3438 58.8125 96.5312 57.375C98.4688 56.0625 101.469 54.3125 105.531 52.125C105.781 52 106 51.9375 106.188 51.9375C107 51.9375 107.219 53.2812 106.844 55.9688C106.344 59.1562 103.406 62.375 98.0312 65.625C90.5312 70.125 82.2188 72.5625 73.0938 72.9375C63.9062 73.3125 57.5938 70.5625 54.1562 64.6875C52.7188 62.1875 52 58.9375 52 54.9375C52 54.0625 52.0625 52.9062 52.1875 51.4688C53.375 37.9062 57.5938 26.75 64.8438 18C70.7188 10.9375 77.5 6.09375 85.1875 3.46875C88.875 2.21875 92.25 1.53125 95.3125 1.40625C98.8125 1.28125 101.594 1.5625 103.656 2.25C106.719 3.375 108.062 5.46875 107.688 8.53125ZM178.281 9.09375C178.781 13.9063 176.344 19.0937 170.969 24.6562C168.594 27.0938 166.406 28.8125 164.406 29.8125C169.031 31.875 172.625 33.9375 175.188 36C177.125 37.5625 178.094 40.3125 178.094 44.25C178.094 45.75 178 47.1875 177.812 48.5625C177 54.3125 174.312 58.8438 169.75 62.1562C161.25 68.3438 146.344 71.375 125.031 71.25C124.781 71.5 123.906 71.1562 122.406 70.2188C120.906 69.2812 120.094 68.5625 119.969 68.0625C119.531 65.75 119.312 63.5312 119.312 61.4062C119.312 57.5938 120.156 52 121.844 44.625C123.594 37.25 124.469 31.6562 124.469 27.8438C124.469 25.5938 124.344 23.5 124.094 21.5625C123.656 18.1875 123.062 16.5 122.312 16.5C122.188 16.5 122 16.5938 121.75 16.7812C121.562 16.9063 121.406 16.9688 121.281 16.9688C120.094 16.9688 119.5 15.1562 119.5 11.5312C119.5 8.28125 121.062 6.15625 124.188 5.15625C128.5 3.78125 136.219 2.8125 147.344 2.25C152.406 2 157.281 1.96875 161.969 2.15625C172.406 2.59375 177.844 4.90625 178.281 9.09375ZM169.938 14.1562C169.938 13.0312 167.188 12.375 161.688 12.1875C159.438 12.125 156.625 12.125 153.25 12.1875C151.75 12.25 149.156 12.3437 145.469 12.4688C144.719 12.5312 142.656 12.6875 139.281 12.9375C136.594 13.125 134.844 13.4375 134.031 13.875C132.719 14.5625 131.938 16.0312 131.688 18.2812L131.125 23.3438C130.75 26.5312 130.906 28.3438 131.594 28.7812C132.156 29.1562 133.562 29.0938 135.812 28.5938C152.562 24.7188 163.875 20.0938 169.75 14.7188C169.875 14.5312 169.938 14.3438 169.938 14.1562ZM171.719 45.9375C171.719 45.125 171.531 44.4688 171.156 43.9688C168.094 39.6562 160.594 37.4375 148.656 37.3125C143.469 37.25 137.938 38 132.062 39.5625C130.312 40 129.25 42.2812 128.875 46.4062L128.312 52.6875C128.062 55.6875 128.281 57.75 128.969 58.875C129.781 60.25 131.656 60.9062 134.594 60.8438C150.219 60.4688 160.969 57.8125 166.844 52.875C170.094 50.125 171.719 47.8125 171.719 45.9375ZM202.75 1.78125C202.938 2.28125 202.719 4 202.094 6.9375C201.281 10.625 200.875 12.5938 200.875 12.8438C200.438 17.4062 199.969 22.5625 199.469 28.3125L198.156 44.1562C197.844 48.2812 197.625 51.6875 197.5 54.375C197.375 57.3125 197.438 60.7188 197.688 64.5938C197.812 66.2188 196.562 68.0938 193.938 70.2188C192.438 71.4688 191.375 72.0938 190.75 72.0938C190.375 72.0938 190.188 71.8438 190.188 71.3438C190.125 64.0312 190.688 54.5312 191.875 42.8438C193.375 28.4062 194.188 18.9062 194.312 14.3438C194.312 14.0938 194.375 11.875 194.5 7.6875C194.75 5.6875 195.375 4.25 196.375 3.375C197.125 2.6875 198.531 2.03125 200.594 1.40625C201.781 1.03125 202.5 1.15625 202.75 1.78125ZM255.812 2.34375C255.812 3.15625 255.469 4.15625 254.781 5.34375C253.594 7.40625 252.5 8.65625 251.5 9.09375C250.125 9.34375 248.094 9.71875 245.406 10.2188C242.406 10.8437 240.406 11.7188 239.406 12.8438C238.469 13.9063 237.875 16 237.625 19.125L235.281 45C235.094 47.375 234.906 50.8125 234.719 55.3125C234.594 58.875 234.625 62.25 234.812 65.4375C234.938 67.125 233.719 69 231.156 71.0625C229.656 72.3125 228.594 72.9375 227.969 72.9375C227.531 72.9375 227.312 72.6562 227.312 72.0938C227.25 65.5312 227.75 56.9375 228.812 46.3125C230.062 33.5 230.781 24.9375 230.969 20.625C231.094 16.875 230.5 15 229.188 15C227.812 15.125 226.344 15.5 224.781 16.125C222.094 17.1875 218.875 18.125 215.125 18.9375C214.5 19.0625 214.062 19.125 213.812 19.125C212.062 19.125 211.188 18.0938 211.188 16.0312C211.188 14.9687 211.688 12.625 212.688 9C213.062 7.75 213.594 7 214.281 6.75C225.656 6.3125 237.344 4.65625 249.344 1.78125C249.656 1.71875 250.344 1.46875 251.406 1.03125C252.469 0.53125 253.094 0.28125 253.281 0.28125C253.844 0.28125 254.5 0.53125 255.25 1.03125C255.625 1.34375 255.812 1.78125 255.812 2.34375ZM309.344 63.8438C309.219 64.8438 308.719 66.25 307.844 68.0625C306.844 70.25 305.969 71.2812 305.219 71.1562C303.969 71.0312 302.938 68.0312 302.125 62.1562C301.375 56.9062 300.406 53.5938 299.219 52.2188C298.531 51.3438 297.312 51.0312 295.562 51.2812C283.812 52.8438 272.344 55.9375 261.156 60.5625C258.844 61.5625 257.469 62.4688 257.031 63.2812C256.844 63.5938 256.75 64.5 256.75 66C256.75 67.5 256.531 68.6875 256.094 69.5625C255.281 71.125 254.156 72.125 252.719 72.5625C251.281 72.9375 250.219 72.0312 249.531 69.8438C249.656 64.3438 253 56.7812 259.562 47.1562C259.625 47.0938 260.781 45.375 263.031 42C267.344 35.5625 270.281 31.125 271.844 28.6875C275.031 23.5625 277 20.375 277.75 19.125C280.188 14.75 281.562 11.3125 281.875 8.8125L282.25 5.71875C282.75 4.84375 284.062 3.65625 286.188 2.15625C287.312 1.34375 288.156 0.90625 288.719 0.84375C289.156 0.84375 289.812 2.0625 290.688 4.5C291.188 5.9375 291.656 7.375 292.094 8.8125C293.781 13.375 294.719 15.6875 294.906 15.75C297.719 22.9375 300.062 28.8438 301.938 33.4688L304.094 39C304.656 40.5625 305.562 43.0312 306.812 46.4062C308.188 50.0938 309.031 52.9375 309.344 54.9375C309.781 57.4375 309.781 60.4062 309.344 63.8438ZM295.375 40.9688C295.688 40.1562 294.469 36.2812 291.719 29.3438C291.156 27.9062 290.344 25.7812 289.281 22.9688C287.906 19.7188 286.75 18.0938 285.812 18.0938C285.375 18.0938 284.906 18.4063 284.406 19.0312C281.781 23.7812 279.031 28.4688 276.156 33.0938C274.469 35.6562 272.125 39.5625 269.125 44.8125C268.938 45.3125 269.25 45.625 270.062 45.75C271.938 46.0625 279.469 45 292.656 42.5625C294.219 42.25 295.125 41.7188 295.375 40.9688ZM371.219 30.1875C371.219 30.875 370.844 31.8125 370.094 33C369.031 34.6875 368.062 35.75 367.188 36.1875C365.562 37.0625 364.594 37.625 364.281 37.875C363.656 38.375 363.281 39.2812 363.156 40.5938L362.969 42.375C362.531 46.5625 362.25 50.5625 362.125 54.375C362 57.375 362.062 60.7812 362.312 64.5938C362.438 66.2812 361.219 68.1562 358.656 70.2188C357.156 71.4688 356.062 72.0938 355.375 72.0938C355 72.0938 354.812 71.8438 354.812 71.3438C354.75 61.5938 355.062 53.1875 355.75 46.125C355.938 44.0625 355.938 42.7188 355.75 42.0938C355.375 40.9062 354.344 40.4375 352.656 40.6875C349.406 41.1875 346.156 41.6562 342.906 42.0938C339.219 42.7188 336.062 43.4375 333.438 44.25C330.812 45.0625 329.062 46 328.188 47.0625C327.375 48.125 326.906 50 326.781 52.6875C326.594 57.5625 326.594 61.5312 326.781 64.5938C326.906 66.2812 325.688 68.1562 323.125 70.2188C321.625 71.4688 320.531 72.0938 319.844 72.0938C319.469 72.0938 319.281 71.8438 319.281 71.3438C319.156 64.2812 319.719 54.7812 320.969 42.8438C322.406 28.9062 323.219 19.4062 323.406 14.3438C323.406 14.0938 323.469 11.875 323.594 7.6875C323.844 5.8125 324.656 4.28125 326.031 3.09375C327.406 1.84375 329.031 1.21875 330.906 1.21875C331.719 1.21875 332.125 1.71875 332.125 2.71875C332.125 3.78125 331.812 5.4375 331.188 7.6875C330.562 10.1875 330.188 11.9062 330.062 12.8438C329.5 18.4063 329.094 22.9688 328.844 26.5312C328.719 28.3438 328.719 29.875 328.844 31.125C328.969 32.5 330.812 33.0938 334.375 32.9062C339.938 32.6562 345.688 32.0625 351.625 31.125C354.25 30.75 356 30.125 356.875 29.25C357.75 28.3125 358.25 26.5625 358.375 24C358.562 20.6875 358.938 14.7188 359.5 6.09375C359.625 4.15625 361.562 2.59375 365.312 1.40625C365.688 1.28125 366.062 1.21875 366.438 1.21875C367.25 1.21875 367.656 1.71875 367.656 2.71875C367.656 3.90625 367.344 5.59375 366.719 7.78125C366.031 10.1563 365.625 11.875 365.5 12.9375C365.438 13.9375 365.312 15.5312 365.125 17.7188L364.656 22.5C364.531 23.5 364.469 24.3438 364.469 25.0312C364.469 26.4062 364.656 27.3125 365.031 27.75C365.469 28.1875 366.375 28.3438 367.75 28.2188C368.812 28.1562 369.781 28.3438 370.656 28.7812C371.031 29.1562 371.219 29.625 371.219 30.1875ZM440.969 43.5938C440.844 44.0938 440.594 44.9688 440.219 46.2188C436.531 53.4062 432.656 58.4688 428.594 61.4062C420.219 67.5938 411.125 70.6875 401.312 70.6875C388.125 70.6875 380.75 65 379.188 53.625C378.875 51.125 378.719 48.6562 378.719 46.2188C378.719 37.2188 381.25 29 386.312 21.5625C388.438 18.5625 390.844 15.8125 393.531 13.3125C401.281 6.1875 409.625 2.625 418.562 2.625C426.062 2.625 432.219 6.21875 437.031 13.4062C438.469 16.0937 439.625 19.8437 440.5 24.6562C441.312 28.8438 441.719 32.75 441.719 36.375C441.719 39.375 441.469 41.7812 440.969 43.5938ZM436.844 40.2188C437.344 37.6562 437.219 34.4688 436.469 30.6562C435.156 23.5312 432.812 18.75 429.438 16.3125C426.375 14.0625 422.75 12.9375 418.562 12.9375C413 12.9375 407.531 14.5312 402.156 17.7188C399.406 19.3438 397.062 21.0625 395.125 22.875C387.875 29.4375 383.906 36.7188 383.219 44.7188C382.969 47.8438 383.188 50.3438 383.875 52.2188C384.75 54.4062 386.5 56.2188 389.125 57.6562C392.5 59.5312 396.594 60.4688 401.406 60.4688C410.219 60.4688 418.719 57.625 426.906 51.9375C429.344 50.25 431.656 47.875 433.844 44.8125C435.781 42.1875 436.781 40.6562 436.844 40.2188ZM506.5 5.71875C506.5 5.90625 506.375 6.125 506.125 6.375C502.625 9.8125 497.656 14.0312 491.219 19.0312C483.594 25.0312 478.5 29.125 475.938 31.3125C472.875 33.9375 471.344 36.2188 471.344 38.1562C471.344 39.5312 472.125 40.9375 473.688 42.375C477.75 46.1875 483.312 51.1562 490.375 57.2812C491.5 58.0312 493.156 59.1562 495.344 60.6562C497.531 62.1562 498.656 63.625 498.719 65.0625C498.594 66.3125 497.281 67.2188 494.781 67.7812C493.344 68.0938 492.25 68.25 491.5 68.25C490.625 68.25 489.969 68.125 489.531 67.875C483.719 62.875 475.594 57.125 465.156 50.625C463.969 49.875 462.438 49.5 460.562 49.5C458.812 49.5 457.906 51.25 457.844 54.75C457.844 54.8125 457.812 55.5312 457.75 56.9062C457.75 57.9688 457.75 58.9688 457.75 59.9062C457.75 60.4688 457.812 62.0312 457.938 64.5938C458 66.2188 456.562 68.0938 453.625 70.2188C451.875 71.4688 450.656 72.0938 449.969 72.0938C449.531 72.0938 449.312 71.8438 449.312 71.3438C449.25 64.1562 450 54.6562 451.562 42.8438C453.375 28.9062 454.375 19.4062 454.562 14.3438C454.625 12.8438 454.688 10.5938 454.75 7.59375C455 5.65625 455.625 4.21875 456.625 3.28125C457.375 2.65625 458.781 2.03125 460.844 1.40625C462.031 1.03125 462.75 1.15625 463 1.78125C463.188 2.21875 462.969 3.9375 462.344 6.9375C461.594 10.5625 461.219 12.5312 461.219 12.8438C461.156 13.5938 460.719 18.3437 459.906 27.0938C459.719 28.9062 459.969 30.6875 460.656 32.4375C460.969 33.1875 461.438 33.5625 462.062 33.5625C463.25 33.5625 466.406 31.5312 471.531 27.4688C474.594 24.9062 477.625 22.375 480.625 19.875C483 18 485.531 15.6875 488.219 12.9375L495.531 5.53125C496.781 4.21875 499.094 3.78125 502.469 4.21875C505.156 4.53125 506.5 5.03125 506.5 5.71875ZM554.688 4.125C551.562 9.4375 547.219 17.5625 541.656 28.5C540.781 31.25 540.25 32.875 540.062 33.375C539.25 35.25 538.25 36.5312 537.062 37.2188C536.625 37.4688 536.188 37.5938 535.75 37.5938C534.938 37.5938 534.094 37.1875 533.219 36.375C531.844 35.125 531.344 34.0938 531.719 33.2812C533.531 29.1562 535.312 25 537.062 20.8125C539 16.0625 540.344 11.75 541.094 7.875C541.281 6.875 542.719 5.46875 545.406 3.65625C547.531 2.21875 549.188 1.5 550.375 1.5C550.625 1.5 551.719 1.90625 553.656 2.71875C554.594 3.09375 554.938 3.5625 554.688 4.125ZM534.25 3.65625C531.125 9.15625 526.812 17.2813 521.312 28.0312C520.938 29.0938 520.406 30.6875 519.719 32.8125C519.031 34.6875 518.031 36 516.719 36.75C516.281 36.9375 515.844 37.0312 515.406 37.0312C514.531 37.0312 513.656 36.625 512.781 35.8125C511.469 34.625 511 33.625 511.375 32.8125L516.719 20.4375C518.531 16.3125 519.875 11.9687 520.75 7.40625C520.938 6.46875 522.375 5.0625 525.062 3.1875C527.25 1.6875 528.906 0.9375 530.031 0.9375C530.281 0.9375 530.562 1.03125 530.875 1.21875C531.188 1.34375 532 1.6875 533.312 2.25C534.25 2.625 534.562 3.09375 534.25 3.65625Z" fill="white"/>
</svg>
