<svg width="34" height="34" viewBox="0 0 34 34" fill="none" xmlns="http://www.w3.org/2000/svg">
<g clip-path="url(#clip0_12_134)">
<path d="M26.2136 34H7.78642C3.49338 34 0 30.5066 0 26.2136V7.78642C0 3.49338 3.49338 0 7.78642 0H26.2152C30.5083 0 34.0017 3.49338 34.0017 7.78642V26.2152C34.0017 30.5083 30.5083 34.0017 26.2152 34.0017L26.2136 34ZM7.78642 2.64901C4.95364 2.64901 2.64901 4.95364 2.64901 7.78642V26.2152C2.64901 29.048 4.95364 31.3526 7.78642 31.3526H26.2152C29.048 31.3526 31.3526 29.048 31.3526 26.2152V7.78642C31.3526 4.95364 29.048 2.64901 26.2152 2.64901H7.78642Z" fill="white"/>
<path d="M17 25.328C12.4073 25.328 8.67218 21.5929 8.67218 17.0002C8.67218 12.4075 12.4073 8.67236 17 8.67236C21.5927 8.67236 25.3278 12.4075 25.3278 17.0002C25.3278 21.5929 21.5927 25.328 17 25.328ZM17 11.3214C13.8692 11.3214 11.3212 13.8694 11.3212 17.0002C11.3212 20.131 13.8692 22.679 17 22.679C20.1308 22.679 22.6788 20.131 22.6788 17.0002C22.6788 13.8694 20.1308 11.3214 17 11.3214Z" fill="white"/>
<path d="M26.2682 9.56635C27.4277 9.56635 28.3676 8.62645 28.3676 7.46701C28.3676 6.30758 27.4277 5.36768 26.2682 5.36768C25.1088 5.36768 24.1689 6.30758 24.1689 7.46701C24.1689 8.62645 25.1088 9.56635 26.2682 9.56635Z" fill="white"/>
</g>
<defs>
<clipPath id="clip0_12_134">
<rect width="34" height="34" fill="white"/>
</clipPath>
</defs>
</svg>
